<?xml version="1.0" encoding="UTF-8" standalone="no"?>
<!-- Created with Inkscape (http://www.inkscape.org/) -->

<svg
   xmlns:dc="http://purl.org/dc/elements/1.1/"
   xmlns:cc="http://creativecommons.org/ns#"
   xmlns:rdf="http://www.w3.org/1999/02/22-rdf-syntax-ns#"
   xmlns:svg="http://www.w3.org/2000/svg"
   xmlns="http://www.w3.org/2000/svg"
   xmlns:sodipodi="http://sodipodi.sourceforge.net/DTD/sodipodi-0.dtd"
   xmlns:inkscape="http://www.inkscape.org/namespaces/inkscape"
   width="512"
   height="512"
   viewBox="0 0 512 512"
   version="1.1"
   id="svg8"
   inkscape:version="0.92.2 (5c3e80d, 2017-08-06)"
   sodipodi:docname="4-6.svg">
  <defs
     id="defs2" />
  <sodipodi:namedview
     id="base"
     pagecolor="#ffffff"
     bordercolor="#666666"
     borderopacity="1.0"
     inkscape:pageopacity="0.0"
     inkscape:pageshadow="2"
     inkscape:zoom="1.4"
     inkscape:cx="132.22137"
     inkscape:cy="266.77185"
     inkscape:document-units="px"
     inkscape:current-layer="svg8"
     showgrid="true"
     units="px"
     showguides="false"
     inkscape:snap-grids="false"
     inkscape:snap-to-guides="false"
     inkscape:window-width="1920"
     inkscape:window-height="1001"
     inkscape:window-x="-9"
     inkscape:window-y="-9"
     inkscape:window-maximized="1">
    <inkscape:grid
       type="xygrid"
       id="grid3699" />
  </sodipodi:namedview>
  <metadata
     id="metadata5">
    <rdf:RDF>
      <cc:Work
         rdf:about="">
        <dc:format>image/svg+xml</dc:format>
        <dc:type
           rdf:resource="http://purl.org/dc/dcmitype/StillImage" />
        <dc:title></dc:title>
      </cc:Work>
    </rdf:RDF>
  </metadata>
  <g
     inkscape:label="圖層 1"
     inkscape:groupmode="layer"
     id="layer1"
     transform="translate(0,-161.53331)" />
  <path
     style="fill:#000000;stroke:#000000;stroke-width:0;stroke-linecap:butt;stroke-linejoin:miter;stroke-opacity:1;stroke-miterlimit:4;stroke-dasharray:none"
     d="M 150.71428,71.285714 C 152.44638,69.42594 153.85549,70.244638 158.33313,71.574786 162.99007,72.958197 168.42733,73.803924 173.53706,74.552302 181.83313,75.767356 190.18723,77.080164 198.57143,76.999999 205.22343,76.936396 211.84281,75.84048 218.39286,74.67857 225.20208,73.470684 232.02679,72.091462 238.57143,69.857142 242.95842,68.359438 247.34545,66.641507 251.25,64.142856 253.77333,62.528096 255.11921,58.934547 258.03572,58.249999 264.2622,56.788552 271.08301,59.848259 276.60714,63.071428 280.89753,65.574744 287.00637,68.818595 286.96428,73.785714 286.93575,77.152767 282.26259,78.609389 279.82143,80.92857 277.43817,83.192743 275.68238,86.711769 272.5,87.535713 268.41165,88.59422 264.38003,84.692591 260.1569,84.678571 254.17282,84.658704 248.50149,87.403175 242.64051,88.610858 234.11017,90.368573 225.5526,92.006388 216.96057,93.432288 211.82774,94.284113 206.37648,93.816897 201.51151,95.661801 198.01696,96.987012 195.14285,99.579895 192.14286,101.82142 189.06058,104.12444 185.36621,105.4367 181.69007,105.34689 178.43446,105.26736 171.43627,97.616461 166.60079,93.400563 161.36347,88.834315 153.31149,80.98458 151.55538,78.972921 149.69544,76.842326 148.95747,73.172015 150.71428,71.285714 Z"
     id="path3738"
     inkscape:connector-curvature="0"
     sodipodi:nodetypes="asaaaaaaaaaaaaaassasa" />
  <path
     style="fill:#800080;stroke:#000000;stroke-width:0;stroke-linecap:butt;stroke-linejoin:miter;stroke-opacity:1;stroke-miterlimit:4;stroke-dasharray:none"
     d="M 204.73214,32.535713 C 204.73214,32.535713 200.08929,31.017856 200.71429,27.80357 201.33929,24.589284 215.85383,17.756011 224.19643,18.696427 231.80032,19.553572 240.53571,24.946427 243.21429,31.55357 245.89286,38.160713 242.94643,39.499999 241.33929,43.42857 239.73214,47.357142 235.49869,58.621685 233.83929,66.55357 230.93846,80.419458 230.70161,94.717709 229.64548,108.84436 228.81182,119.99538 228.58887,131.18399 227.9554,142.34817 226.66417,165.10468 224.35838,187.80982 223.65315,210.59202 222.7298,240.42057 222.51507,270.30317 223.74879,300.1205 224.90103,327.96869 228.29448,368.05326 230.56732,383.45809 232.84016,398.86291 234.7589,399.77332 233.77373,406.05653 231.7682,418.84727 226.47331,437.33011 221.98102,443.8147 220.07801,446.5493 215.03709,450.86301 212.88965,446.08755 209.94227,439.53321 209.40699,431.64912 206.0558,425.09887 202.48866,418.12652 197.69224,411.70547 192.19421,406.12787 186.4206,400.2707 173.74624,391.53931 172.48355,391.28677 171.22086,391.03423 169.0373,386.39663 175.85583,385.13394 182.67436,383.87125 190.41888,383.58187 197.70673,383.90714 200.67538,384.03964 204.25478,384.9453 206.52762,385.19784 208.80046,385.45038 211.53767,387.08291 212.80036,382.03215 214.06305,376.98139 216.53419,336.07244 217.03486,313.03584 217.47516,292.7773 216.00424,271.02783 215.95074,252.25555 215.83955,213.23402 220.96772,153.1188 221.19803,142.80719 221.45767,131.18236 222.35628,118.77937 222.05499,106.76603 221.5201,85.438239 218.59079,50.766014 217.3281,42.937332 216.06541,35.10865 204.73214,32.535713 204.73214,32.535713 Z"
     id="path3742"
     inkscape:connector-curvature="0"
     sodipodi:nodetypes="csaccaaaaasscsaassassassasc" />
  <path
     style="fill:#0000ff;stroke:#000000;stroke-width:0;stroke-linecap:butt;stroke-linejoin:miter;stroke-opacity:1;stroke-miterlimit:4;stroke-dasharray:none"
     d="M 142.47834,125.39285 C 142.74066,123.22118 144.92784,119.84501 148.46682,122.70902 152.5,125.97298 155.64736,128.15814 162.76785,129.32142 180.7877,132.26532 209.92884,127.06656 233.27742,123.80738 251.00143,121.33332 268.92133,118.82617 285.90183,113.17603 291.77525,111.22169 296.53173,104.48427 302.67857,105.21428 316.58797,106.86618 333.75898,126.97833 335.36612,131.62119 336.97326,136.26405 335.20779,139.14825 333.60579,142.42739 331.9455,145.82586 329.64286,141.10714 325.89286,150.75 322.14286,160.39286 294.82143,236.10714 292.5,242.89286 290.17857,249.67857 289.10714,252.53571 286.07143,253.78571 283.03571,255.03571 282.14286,251.46429 281.96429,246.64286 281.78571,241.82143 277.3302,224.51969 279.60304,220.22654 281.87588,215.93339 282.08622,216.11052 280.16043,209.82543 278.79491,205.36887 275.64538,203.14586 273.75134,197.84256 271.8573,192.53926 269.24526,188.42468 275.93752,191.45514 282.62979,194.48559 285.58759,196.59665 290.12299,196.26605 295.7401,195.85661 307.32994,142.1579 308.34009,133.31906 309.35024,124.48023 310.14531,124.06738 307.21264,121.3235 304.92123,119.1796 300.92671,120.77681 297.8022,121.06725 275.66579,123.12496 255.50955,129.66468 232.60832,135.14032 218.45678,138.52393 203.32382,141.6609 189.28571,146.82143 182.42143,149.3448 175.43899,151.99795 169.44634,156.19008 167.25852,157.72056 167.32143,160.57143 163.75,161.82143 160.17857,163.07143 156.23189,156.79363 153.8905,153.07669 150.76007,148.10713 146.89281,143.4984 144.30104,137.78717 142.45406,133.71717 142.01022,129.26831 142.47834,125.39285 Z"
     id="path3744"
     inkscape:connector-curvature="0"
     sodipodi:nodetypes="sssaaasassccssscssaasaassss" />
  <path
     style="fill:#ff0000;stroke:#000000;stroke-width:0;stroke-linecap:butt;stroke-linejoin:miter;stroke-opacity:1;stroke-miterlimit:4;stroke-dasharray:none"
     d="M 225.5797,260.21948 C 225.14749,259.40994 225.57947,257.39738 227.45973,258.48552 229.40923,259.61374 231.56665,261.41717 233.33442,262.9324 235.10219,264.44763 254.93651,277.93261 265.79639,285.34702 279.47423,294.68535 292.43159,305.22582 306.97697,313.1454 328.6289,324.9343 352.03913,333.20178 375,342.17857 395.54131,350.20941 435.06193,363.60956 437.33478,364.36717 439.60762,365.12479 442.85024,365.63553 442.64334,367.71778 442.32566,370.91483 437.00151,370.41069 433.63971,371.15769 423.74223,373.35692 414.38271,375.05614 405.13879,378.29003 398.90534,380.47074 389.61421,383.97013 387.11295,386.51021 384.77993,388.87944 383.73169,389.1402 381.71139,389.64527 379.31227,389.70841 375.08226,386.93049 372.87256,385.09959 370.81,383.39061 332.84526,352.14336 326.02673,346.08244 319.2082,340.02153 308.88387,331.56818 300.26784,324.36417 283.57347,310.40572 266.38504,297.03024 250.01275,282.69537 242.96198,276.52202 236.52414,270.44618 229.36589,263.61342 228.29343,262.58973 226.12369,261.23838 225.5797,260.21948 Z"
     id="path3746"
     inkscape:connector-curvature="0"
     sodipodi:nodetypes="sssaaacasascssaass" />
  <path
     style="fill:#ffff00;stroke:#000000;stroke-width:0;stroke-linecap:butt;stroke-linejoin:miter;stroke-opacity:1;stroke-miterlimit:4;stroke-dasharray:none"
     d="M 71.468293,379.67002 C 71.468293,379.67002 86.383239,392.63177 95.459416,392.54946 104.24038,392.46982 112.12693,386.48855 118.44039,379.67002 124.75384,372.85149 146.82935,351.07179 159.85664,335.72838 178.16616,314.16361 208.09513,276.34678 210.73148,269.07626 212.75178,265.79326 212.8526,264.39563 215.04464,263.78571 217.07923,263.21961 221.20613,264.20853 221.00894,265.92282 219.58621,278.29142 215.29428,285.23949 211.09342,294.35545 205.31849,306.88717 198.06738,318.75123 190.23518,330.11126 177.509,348.56964 163.57598,366.33391 147.98735,382.44794 138.45389,392.30271 127.66729,400.90121 116.85382,409.33164 111.9566,413.14963 106.67479,416.44702 101.60714,420.03571 99.308828,421.66327 97.531535,425.254 94.732143,424.94643 90.835597,424.51832 88.770474,419.62769 86.875001,416.19643 83.567872,410.20974 84.107143,402.17857 81.25,396.46429 78.392857,390.75 71.468293,379.67002 71.468293,379.67002 Z"
     id="path3748"
     inkscape:connector-curvature="0"
     sodipodi:nodetypes="casscasaaaaaaasc" />
  <path
     style="fill:#00ff00;stroke:#000000;stroke-width:0;stroke-linecap:butt;stroke-linejoin:miter;stroke-opacity:1;stroke-miterlimit:4;stroke-dasharray:none"
     d="M 175.74425,206.96983 C 170.03906,202.76603 158.73206,198.86635 160.61425,192.03418 161.18033,189.97936 164.75365,191.01624 166.82311,190.50626 177.38125,187.90438 188.02734,185.6352 198.49498,182.69027 209.59675,179.56694 227.18715,173.51225 231.4803,172.24956 235.77345,170.98687 236.09252,167.70386 239.8806,167.19878 243.66867,166.69371 255.58128,172.21891 257.34905,174.7443 259.11682,177.26968 258.09398,179.65981 256.07367,184.71057 254.05337,189.76134 254.14002,186.26913 249.59434,185.25898 245.04865,184.24882 236.29538,191.78209 229.60575,194.96003 221.19375,198.95619 212.70282,202.78423 204.27054,206.73741 199.1387,209.14329 192.93914,212.99485 188.89853,214.005 184.85792,215.01515 179.74737,209.91948 175.74425,206.96983 Z"
     id="path3750"
     inkscape:connector-curvature="0"
     sodipodi:nodetypes="aaaasccccaasa" />
  <path
     style="fill:#800000;stroke:#000000;stroke-width:0;stroke-linecap:butt;stroke-linejoin:miter;stroke-opacity:1;stroke-miterlimit:4;stroke-dasharray:none"
     d="M 97.984797,158.44661 C 92.445239,148.81239 92.428958,129.40472 92.17642,125.61665 91.923882,121.82858 91.671344,118.54558 93.944187,116.52528 96.21703,114.50497 109.85409,120.06081 112.88455,123.09127 115.915,126.12173 121.97592,131.9301 125.76399,137.48594 129.55206,143.04178 141.42136,176.12428 144.45181,186.73088 147.48227,197.33748 158.34141,234.46059 158.34141,241.78419 158.34141,249.1078 155.05842,261.98724 151.77542,262.23978 148.49242,262.49232 138.13836,252.64334 136.62313,247.59257 135.1079,242.54181 136.72636,230.23434 134.85536,221.83368 132.32352,210.46591 127.20685,199.78488 122.22846,189.25626 119.00595,182.44109 115.92164,175.36728 111.11678,169.55829 107.46208,165.13981 100.84303,163.41756 97.984797,158.44661 Z"
     id="path3752"
     inkscape:connector-curvature="0"
     sodipodi:nodetypes="asccsssssaaaa" />
  <path
     style="fill:#008000;stroke:#000000;stroke-width:0;stroke-linecap:butt;stroke-linejoin:miter;stroke-opacity:1;stroke-miterlimit:4;stroke-dasharray:none"
     d="M 129.36266,267.10115 C 124.9934,263.22561 120.67516,258.27035 117.37514,254.32259 115.70208,251.82877 115.04517,248.54236 117.08973,247.74314 119.19892,246.91864 123.26185,250.21093 126.52161,250.37049 150.3386,251.5363 173.58272,242.59909 196.97975,237.99612 214.81688,234.48696 246.9823,227.38952 250.26529,226.37937 253.54829,225.36921 255.52789,222.68059 257.5482,222.42805 259.5685,222.17551 270.48228,225.41142 276.72315,227.62674 280.64847,229.02012 286.37825,231.17759 288.14601,232.69282 289.91378,234.20805 289.23714,239.00988 288.5338,242.05205 287.90562,244.76909 286.60714,249.32143 284.55357,249.41071 282.5,249.5 282.14286,248.69643 280.44643,247.53571 278.75,246.375 277.1375,244.82378 275.17857,244.05357 271.97746,242.79495 268.4372,242.48703 265,242.35714 249.71144,241.77937 234.18074,242.96972 219.28572,246.46428 204.11192,250.02425 182.5,259.85714 175.71429,263.42857 168.92857,267 154.99102,273.25 153.20531,274.5 151.41959,275.75 152.14286,278.07143 150.35714,278.96429 148.57143,279.85714 145.17857,278.07143 143.57143,277.17857 141.96429,276.28571 139.48267,274.47851 137.48019,273.06772 134.73494,271.13362 131.87492,269.32953 129.36266,267.10115 Z"
     id="path3754"
     inkscape:connector-curvature="0"
     sodipodi:nodetypes="acsaacsacaccaaasccsaa" />
</svg>
