<svg xmlns="http://www.w3.org/2000/svg" height="512" width="512"><style>.a{fill:Lavender;opacity:0.2;stroke:#f0f;}.b{fill:freeze;}.c{fill:Lavender;opacity:0.2;stroke:#f00;}.d{fill:Lavender;opacity:0.2;stroke:#0f0;}.e{fill:Lavender;opacity:0.2;stroke:#00f;}</style><rect width="512" height="512" style="fill:white;stroke:red"/><path d="M382 371C440 281 80 162 82 314 84 467 324 462 382 371z" style="fill:none;stroke-opacity:0.8;stroke-width:2px;stroke:#000"/><circle cx="382" cy="371" r="16" class="a"><animate attributeName="opacity" to="1" begin="0s" dur="2s" repeatCount="0" class="b"/></circle><circle cx="440" cy="281" r="12" class="c"><animate attributeName="opacity" to="1" begin="2s" dur="1s" repeatCount="0" class="b"/></circle><circle cx="80" cy="162" r="12" class="d"><animate attributeName="opacity" to="1" begin="3s" dur="1s" repeatCount="0" class="b"/></circle><circle cx="82" cy="314" r="12" class="e"><animate attributeName="opacity" to="1" begin="4s" dur="1s" repeatCount="0" class="b"/></circle><circle cx="84" cy="467" r="12" class="c"><animate attributeName="opacity" to="1" begin="5s" dur="1s" repeatCount="0" class="b"/></circle><circle cx="324" cy="462" r="12" class="d"><animate attributeName="opacity" to="1" begin="6s" dur="1s" repeatCount="0" class="b"/></circle><circle cx="382" cy="371" r="12" class="e"><animate attributeName="opacity" to="1" begin="7s" dur="1s" repeatCount="0" class="b"/></circle><path d="M206 114C237 53 417 13 410 99 402 212 357 236 272 221 202 209 186 151 206 114z" style="fill:none;stroke-width:1px;stroke:#000"/><circle cx="206" cy="114" r="16" class="a"><animate attributeName="opacity" to="1" begin="0s" dur="2s" repeatCount="0" class="b"/></circle><circle cx="237" cy="53" r="12" class="c"><animate attributeName="opacity" to="1" begin="2s" dur="1s" repeatCount="0" class="b"/></circle><circle cx="417" cy="26" r="12" class="d"><animate attributeName="opacity" to="1" begin="3s" dur="1s" repeatCount="0" class="b"/></circle><circle cx="410" cy="99" r="12" class="e"><animate attributeName="opacity" to="1" begin="4s" dur="1s" repeatCount="0" class="b"/></circle><circle cx="402" cy="212" r="12" class="c"><animate attributeName="opacity" to="1" begin="5s" dur="1s" repeatCount="0" class="b"/></circle><circle cx="357" cy="236" r="12" class="d"><animate attributeName="opacity" to="1" begin="6s" dur="1s" repeatCount="0" class="b"/></circle><circle cx="272" cy="221" r="12" class="e"><animate attributeName="opacity" to="1" begin="7s" dur="1s" repeatCount="0" class="b"/></circle><circle cx="202" cy="209" r="12" class="c"><animate attributeName="opacity" to="1" begin="8s" dur="1s" repeatCount="0" class="b"/></circle><circle cx="186" cy="151" r="12" class="d"><animate attributeName="opacity" to="1" begin="9s" dur="1s" repeatCount="0" class="b"/></circle><circle cx="206" cy="114" r="12" class="e"><animate attributeName="opacity" to="1" begin="10s" dur="1s" repeatCount="0" class="b"/></circle></svg>