<svg xmlns="http://www.w3.org/2000/svg" width="512" height="512">
  <path d="M133.214 92.66s14.314 7.894 22.223 9.218c5.629.943 11.453-.148 17.089-1.05 17.293-2.766 33.945-8.64 50.829-13.295 12.722-3.507 25.79-6.078 38.026-11.022 3.29-1.33 5.871-4.76 9.414-4.973 6.657-.398 13.796 2.626 18.677 7.17 2.605 2.425 4.846 7.395 4.53 9.668-.315 2.273-1.058 7.694-2.636 8.514-1.578.821-9.322-.528-13.914.122-7.6 1.075-14.889 3.787-22.176 6.196-12.478 4.126-25.98 9.514-38.91 14.435-6.223 2.368-12.462 4.99-18.61 7.262-2.626 1.644-8.337 6.224-8.337 6.224s-10.37-.462-15.925-1.724c-5.556-1.263-13.385-9.344-17.678-12.627-4.293-3.283-8.334-7.829-10.86-10.86-2.524-3.03-11.742-13.258-11.742-13.258z"/>
  <path d="M81.317 239.764c2.948-5.01 11.367 3.316 17.173 3.03 36.495-1.794 70.295-19.983 105.56-29.547 32.802-8.894 91.798-24.117 98.617-25.885 6.818-1.768 7.955-7.955 11.238-8.965 3.283-1.01 26.769 4.546 28.284 5.303 1.515.758 12.88 8.082 13.132 10.86.253 2.777 1.263 8.08-1.515 7.576-2.778-.505-5.05-1.01-7.576-1.263-2.526-.253-5.304 2.525-8.081 2.778-2.778.252-19.32-6.44-22.098-6.187-2.777.252-28.456 2.948-42.449 5.803-21.37 4.36-42.282 10.802-63.12 17.243-19.317 5.97-39.149 10.968-57.327 19.82-9.591 4.671-22.34 14.334-26.886 17.364-4.546 3.03-6.227 8.268-10.86 8.839-7.287.898-14.164-4.821-19.95-9.344-5.893-4.607-17.935-10.978-14.142-17.425z"/>
  <path d="M160.677 154.974c1.404-5.305 11.68-3.283 16.226-2.778 4.546.505 24.622 6.756 26.138 9.786 1.515 3.03 2.525 6.566 1.515 9.092-1.01 2.525-1.01 3.535-4.546 7.576-3.535 4.04-6.566 13.384-6.566 17.93 0 4.546-5.7 32.834-8.586 49.245-1.827 10.386-3.603 20.782-5.525 31.152-1.949 10.508-3.176 21.195-6.092 31.477-5.58 19.676-12.026 38.218-20.443 56.334-5.5 11.84-13.963 26.887-19.52 33.958-5.555 7.07-14.484 14.744-21.05 18.28-6.566 3.535-24.345 9.616-29.395 11.636-5.051 2.02-17.173 3.03-23.74 2.526-6.565-.505-23.738-6.061-23.738-6.061s11.617-3.536 19.698-6.566c8.082-3.03 38.393-14.811 53.896-27.78 14.718-12.312 25.66-28.944 34.998-45.709 12.924-23.206 25.759-66.417 28.284-74.498 2.525-8.082 13.637-62.125 13.132-70.206-.505-8.081-2.158-24.447-8.563-30.678-3.504-3.41-4.962-5.32-8.574-8.526-3.613-3.205-8.38-3.044-7.549-6.19z"/>
  <path d="M160.179 208.034c2.688-4.285 8.516-1.605 15.082 1.678 6.566 3.283 19.55 10.783 28.032 17.93 15.857 13.362 36.113 40.911 41.922 45.962 5.808 5.05 39.648 35.355 53.538 44.194 13.89 8.839 34.092 20.708 43.941 25.001 9.85 4.294 36.618 14.648 47.225 17.93 10.606 3.284 76.519 18.057 78.918 18.815 2.4.757 7.197-.126 7.197 2.273s-4.798 4.293-7.07 4.672c-2.274.378-34.875.848-52.15 3.03-15.658 1.978-37.628 9.344-46.467 9.091-8.839-.252-48.648-26.218-70.923-42.426-17.88-13.01-40.825-34.85-49.916-43.69-9.092-8.838-11.8-13.539-17.175-20.722-9.117-12.185-15.91-26.053-25.504-37.866-9.382-11.553-26.075-27.716-31.126-32.01-5.05-4.292-8.242-4.122-11.427-7.34-1.807-1.824-5.462-4.347-4.097-6.522z"/>
</svg>
