<?xml version="1.0" encoding="UTF-8" standalone="no"?>
<!-- Created with Inkscape (http://www.inkscape.org/) -->

<svg
   xmlns:dc="http://purl.org/dc/elements/1.1/"
   xmlns:cc="http://creativecommons.org/ns#"
   xmlns:rdf="http://www.w3.org/1999/02/22-rdf-syntax-ns#"
   xmlns:svg="http://www.w3.org/2000/svg"
   xmlns="http://www.w3.org/2000/svg"
   xmlns:sodipodi="http://sodipodi.sourceforge.net/DTD/sodipodi-0.dtd"
   xmlns:inkscape="http://www.inkscape.org/namespaces/inkscape"
   width="512"
   height="512"
   viewBox="0 0 512 512"
   version="1.1"
   id="svg4564"
   sodipodi:docname="U+5929.svg"
   inkscape:version="0.92.4 (5da689c313, 2019-01-14)">
  <defs
     id="defs4558" />
  <sodipodi:namedview
     id="base"
     pagecolor="#ffffff"
     bordercolor="#666666"
     borderopacity="1.0"
     inkscape:pageopacity="0.0"
     inkscape:pageshadow="2"
     inkscape:zoom="0.98994949"
     inkscape:cx="-47.013853"
     inkscape:cy="281.77819"
     inkscape:document-units="px"
     inkscape:current-layer="layer1"
     showgrid="false"
     units="px"
     inkscape:window-width="1920"
     inkscape:window-height="1017"
     inkscape:window-x="-8"
     inkscape:window-y="-8"
     inkscape:window-maximized="1">
    <inkscape:grid
       type="xygrid"
       id="grid4588" />
  </sodipodi:namedview>
  <metadata
     id="metadata4561">
    <rdf:RDF>
      <cc:Work
         rdf:about="">
        <dc:format>image/svg+xml</dc:format>
        <dc:type
           rdf:resource="http://purl.org/dc/dcmitype/StillImage" />
        <dc:title></dc:title>
      </cc:Work>
    </rdf:RDF>
  </metadata>
  <g
     inkscape:label="圖層 1"
     inkscape:groupmode="layer"
     id="layer1"
     transform="translate(0,-161.53331)">
    <path
       style="fill:#000000;stroke:none;stroke-width:1px;stroke-linecap:butt;stroke-linejoin:miter;stroke-opacity:1;fill-opacity:1"
       d="m 133.21387,254.19373 c 0,0 14.31376,7.89318 22.22335,9.21765 5.62856,0.94251 11.45326,-0.14847 17.08857,-1.04977 17.29319,-2.76585 33.94565,-8.64112 50.82887,-13.29524 12.72255,-3.50716 25.79018,-6.07795 38.02603,-11.02239 3.29037,-1.32962 5.87162,-4.76053 9.41416,-4.9723 6.65669,-0.39794 13.79568,2.6259 18.67699,7.16932 2.60522,2.42489 4.84604,7.39572 4.53036,9.66856 -0.31567,2.27284 -1.05796,7.69344 -2.63632,8.51419 -1.57837,0.82075 -9.32167,-0.52876 -13.91412,0.12124 -7.59921,1.07556 -14.88828,3.78756 -22.17531,6.1967 -12.47853,4.12548 -25.98084,9.51401 -38.90991,14.43428 -6.22387,2.36855 -12.46223,4.99051 -18.61124,7.26233 -2.62522,1.64405 -8.33638,6.22418 -8.33638,6.22418 0,0 -10.36938,-0.46176 -15.92522,-1.72445 -5.55584,-1.26269 -13.38452,-9.34391 -17.67767,-12.6269 -4.29315,-3.283 -8.33376,-7.82869 -10.85914,-10.85914 -2.52538,-3.03046 -11.74302,-13.25826 -11.74302,-13.25826 z"
       id="path4590"
       inkscape:connector-curvature="0"
       sodipodi:nodetypes="caaaaaaccasaccsccc" />
    <path
       style="fill:#000000;fill-opacity:1;stroke:none;stroke-width:1px;stroke-linecap:butt;stroke-linejoin:miter;stroke-opacity:1"
       d="M 81.31728,401.2972 C 84.265034,396.28745 92.684239,404.61308 98.489873,404.32766 134.98517,402.53343 168.78508,384.34387 204.05081,374.78069 236.85177,365.88589 295.84843,350.6633 302.66696,348.89554 309.48549,347.12777 310.62191,340.94058 313.9049,339.93043 317.1879,338.92028 340.67395,344.47612 342.18918,345.23373 343.7044,345.99135 355.06862,353.31495 355.32116,356.09287 355.5737,358.87079 356.58385,364.17409 353.80593,363.66902 351.02801,363.16394 348.75517,362.65886 346.22979,362.40633 343.7044,362.15379 340.92648,364.93171 338.14856,365.18425 335.37065,365.43678 318.82939,358.74452 316.05147,358.99706 313.27355,359.2496 287.59522,361.9454 273.60209,364.80041 252.23129,369.16068 231.31995,375.60213 210.48157,382.04303 191.16461,388.01367 171.33336,393.01167 153.15541,401.86355 143.56357,406.53437 130.81475,416.19695 126.26907,419.22741 121.72338,422.25786 120.04212,427.49552 115.40993,428.06624 108.12163,428.96421 101.24478,423.24509 95.459416,418.72233 89.565971,414.11508 77.523657,407.74452 81.31728,401.2972 Z"
       id="path4592"
       inkscape:connector-curvature="0"
       sodipodi:nodetypes="aaacscscccsaaacaaa" />
    <path
       style="fill:#000000;stroke:none;stroke-width:1px;stroke-linecap:butt;stroke-linejoin:miter;stroke-opacity:1;fill-opacity:1"
       d="m 160.67739,316.50752 c 1.4034,-5.30472 11.67989,-3.283 16.22557,-2.77792 4.54569,0.50508 24.62247,6.7554 26.1377,9.78585 1.51523,3.03046 2.52538,6.56599 1.51523,9.09138 -1.01015,2.52538 -1.01015,3.53553 -4.54569,7.57614 -3.53553,4.04061 -6.56599,13.38452 -6.56599,17.9302 0,4.54569 -5.70028,32.83415 -8.58629,49.24494 -1.8266,10.38665 -3.60243,20.78265 -5.52521,31.15193 -1.94851,10.50805 -3.17596,21.19575 -6.09155,31.47753 -5.5793,19.6753 -12.02647,38.21736 -20.4429,56.33395 -5.50077,11.84055 -13.96356,26.88634 -19.5194,33.95741 -5.55584,7.07107 -14.48441,14.74438 -21.0504,18.27991 -6.56599,3.53554 -24.345189,9.61658 -29.395951,11.63688 -5.050763,2.02031 -17.172594,3.03046 -23.738585,2.52539 -6.565992,-0.50508 -23.738585,-6.06092 -23.738585,-6.06092 0,0 11.616754,-3.53553 19.697975,-6.56599 8.08122,-3.03046 38.393159,-14.81107 53.895226,-27.7792 14.71873,-12.31284 25.66116,-28.94435 34.9982,-45.70939 12.92431,-23.20614 25.75889,-66.41754 28.28427,-74.49876 2.52538,-8.08122 13.63706,-62.12438 13.13198,-70.2056 -0.50508,-8.08122 -2.15831,-24.44677 -8.56277,-30.67813 -3.50397,-3.40926 -4.96194,-5.3204 -8.57438,-8.52579 -3.61244,-3.20539 -8.38067,-3.0441 -7.54845,-6.18981 z"
       id="path4594"
       inkscape:connector-curvature="0"
       sodipodi:nodetypes="ascccsaasasccccsaassssa" />
    <path
       style="fill:#000000;fill-opacity:1;stroke:none;stroke-width:1px;stroke-linecap:butt;stroke-linejoin:miter;stroke-opacity:1"
       d="M 160.17866,369.56722 C 162.86742,365.28233 168.69548,367.96216 175.26147,371.24519 181.82746,374.52819 194.81109,382.02811 203.2932,389.1754 219.15042,402.53718 239.40615,430.08658 245.21453,435.13734 251.02291,440.1881 284.86302,470.49268 298.75262,479.33151 312.64221,488.17035 332.84526,500.03964 342.69425,504.33279 352.54324,508.62594 379.31228,518.98 389.91888,522.263 400.52548,525.54599 466.43794,540.31947 468.83705,541.07709 471.23616,541.8347 476.03439,540.95082 476.03439,543.34993 476.03439,545.74904 471.23616,547.64308 468.96332,548.02189 466.69048,548.40069 434.08933,548.87059 416.81419,551.05234 401.15589,553.02989 379.18601,560.39625 370.34718,560.14372 361.50834,559.89118 321.69899,533.92571 299.42357,517.71731 281.54416,504.7076 258.59905,482.86705 249.50768,474.02821 240.41631,465.18938 237.70796,460.48849 232.33291,453.30522 223.21558,441.12073 216.42221,427.2526 206.82874,415.43936 197.44682,403.88663 180.75417,387.7233 175.70341,383.43016 170.65264,379.13701 167.46058,379.30764 164.27552,376.09014 162.46917,374.2654 158.81394,371.74209 160.17866,369.56722 Z"
       id="path4596"
       inkscape:connector-curvature="0"
       sodipodi:nodetypes="asasssscscacasaasaa" />
  </g>
</svg>
