<?xml version="1.0" encoding="UTF-8" standalone="no"?>
<!-- Created with Inkscape (http://www.inkscape.org/) -->

<svg
   xmlns:dc="http://purl.org/dc/elements/1.1/"
   xmlns:cc="http://creativecommons.org/ns#"
   xmlns:rdf="http://www.w3.org/1999/02/22-rdf-syntax-ns#"
   xmlns:svg="http://www.w3.org/2000/svg"
   xmlns="http://www.w3.org/2000/svg"
   xmlns:sodipodi="http://sodipodi.sourceforge.net/DTD/sodipodi-0.dtd"
   xmlns:inkscape="http://www.inkscape.org/namespaces/inkscape"
   width="512"
   height="512"
   viewBox="0 0 512 512"
   version="1.1"
   id="svg8"
   inkscape:version="0.92.3 (2405546, 2018-03-11)"
   sodipodi:docname="U+4F8D.svg">
  <defs
     id="defs2" />
  <sodipodi:namedview
     id="base"
     pagecolor="#ffffff"
     bordercolor="#666666"
     borderopacity="1.0"
     inkscape:pageopacity="0.0"
     inkscape:pageshadow="2"
     inkscape:zoom="1.4"
     inkscape:cx="123.59058"
     inkscape:cy="272.98358"
     inkscape:document-units="px"
     inkscape:current-layer="layer1"
     showgrid="false"
     units="px"
     inkscape:window-width="1680"
     inkscape:window-height="987"
     inkscape:window-x="2040"
     inkscape:window-y="88"
     inkscape:window-maximized="1">
    <inkscape:grid
       type="xygrid"
       id="grid10" />
  </sodipodi:namedview>
  <metadata
     id="metadata5">
    <rdf:RDF>
      <cc:Work
         rdf:about="">
        <dc:format>image/svg+xml</dc:format>
        <dc:type
           rdf:resource="http://purl.org/dc/dcmitype/StillImage" />
        <dc:title></dc:title>
      </cc:Work>
    </rdf:RDF>
  </metadata>
  <g
     inkscape:label="圖層 1"
     inkscape:groupmode="layer"
     id="layer1"
     transform="translate(0,-161.53331)">
    <path
       style="fill:#000000;stroke:#000000;stroke-width:1px;stroke-linecap:butt;stroke-linejoin:miter;stroke-opacity:1"
       d="m 140,247.10474 c 0,0 11.42857,22.14286 5.71429,35 C 140,294.96188 55,397.10474 55,397.10474 l -24.285714,30.71428 c 0,0 39.285714,-22.85714 50.714286,-34.28571 11.428571,-11.42857 86.428568,-82.14286 86.428568,-82.14286 0,0 17.85715,-6.42857 24.28572,-6.42857 6.42857,0 12.85714,0.71429 3.57143,-15.71428 -9.28572,-16.42858 -3.57143,-30.00001 -40.71429,-40.71429 -37.14286,-10.71429 -15,-1.42857 -15,-1.42857 z"
       id="path25"
       inkscape:connector-curvature="0" />
    <path
       style="fill:#000000;stroke:#000000;stroke-width:1px;stroke-linecap:butt;stroke-linejoin:miter;stroke-opacity:1"
       d="m 120.71429,379.2476 c 0,0 -10.71429,-10.71429 1.42857,-10.71429 12.14285,0 39.28571,13.57143 33.57143,31.42857 -5.71429,17.85714 -13.57143,55.71429 -11.42858,77.85714 2.14286,22.14286 7.85715,40 0,52.85715 -7.85714,12.85714 -16.42857,10 -21.42857,-2.85715 -5,-12.85714 5.71429,-90.71428 5.71429,-90.71428 0,0 12.14286,-52.85714 -7.85714,-57.85714 z"
       id="path27"
       inkscape:connector-curvature="0" />
    <path
       style="fill:#000000;stroke:#000000;stroke-width:1px;stroke-linecap:butt;stroke-linejoin:miter;stroke-opacity:1"
       d="m 226.42857,307.10474 c 0,0 -17.85714,-0.71429 -1.42857,10.71428 16.42857,11.42858 20.71429,20 57.85714,1.42858 37.14286,-18.57143 56.42857,-24.28572 56.42857,-24.28572 0,0 14.28572,-31.42857 -15.71428,-23.57143 -30,7.85715 -97.14286,35.71429 -97.14286,35.71429 z"
       id="path29"
       inkscape:connector-curvature="0" />
    <path
       style="fill:#000000;stroke:#000000;stroke-width:1px;stroke-linecap:butt;stroke-linejoin:miter;stroke-opacity:1"
       d="m 162.85714,390.67617 c 0,0 25.71429,20 32.85715,12.85714 7.14285,-7.14286 116.42857,-49.28571 172.14285,-47.85714 55.71429,1.42857 56.42857,2.85714 70.71429,4.28571 14.28571,1.42857 35,0 17.14286,-20.71428 -17.85715,-20.71429 -35,-10 -35,-10 0,0 -40,12.85714 -64.28572,15.71428 -24.28571,2.85714 -192.14286,40.71429 -193.57143,45.71429 z"
       id="path31"
       inkscape:connector-curvature="0" />
    <path
       style="fill:#000000;stroke:#000000;stroke-width:1px;stroke-linecap:butt;stroke-linejoin:miter;stroke-opacity:1"
       d="m 252.85714,207.81902 c 0,0 -29.28571,-12.85714 1.42857,-14.28571 30.71429,-1.42857 42.14286,25.71428 42.85715,26.42857 0.71428,0.71429 0,11.42857 -4.28572,16.42857 -4.28571,5 -4.28571,92.85715 -7.14285,100.71429 -2.85715,7.85714 -11.42858,61.42857 -19.28572,6.42857 C 258.57143,288.53331 260,241.39045 260,241.39045 l 1.42857,-11.42857 c 0,0 3.57143,-17.14286 -5.71428,-20.71429 -9.28572,-3.57142 -2.85715,-1.42857 -2.85715,-1.42857 z"
       id="path33"
       inkscape:connector-curvature="0" />
    <path
       style="fill:#000000;stroke:#000000;stroke-width:1px;stroke-linecap:butt;stroke-linejoin:miter;stroke-opacity:1"
       d="m 202.14286,422.10474 c 0,0 -17.14286,2.85714 -2.85715,17.85714 14.28572,15 27.14286,1.42857 27.14286,1.42857 0,0 67.14286,-34.28571 111.42857,-32.85714 44.28572,1.42857 60.71429,-1.42857 60.71429,-1.42857 0,0 38.57143,-0.71429 5.71428,-17.85714 -32.85714,-17.14286 -68.57142,6.42857 -68.57142,6.42857 l -96.42858,22.85714 z"
       id="path35"
       inkscape:connector-curvature="0" />
    <path
       style="fill:#000000;stroke:#000000;stroke-width:1px;stroke-linecap:butt;stroke-linejoin:miter;stroke-opacity:1"
       d="m 300,383.53331 c 0,0 -21.42857,-21.42857 15.71429,-17.14286 37.14285,4.28572 22.14285,42.14286 22.85714,46.42857 0.71428,4.28572 1.42857,49.28572 1.42857,49.28572 l 0.71429,79.28571 c 0,0 -16.42858,62.14286 -32.14286,18.57143 -15.71429,-43.57143 -15.71429,-28.57143 -15.71429,-28.57143 0,0 -5.71428,-9.28571 9.28572,-5.71428 15,3.57143 19.28571,15.71428 16.42857,-17.14286 -2.85714,-32.85714 -6.42857,-115 -6.42857,-115 0,0 -7.14286,-14.28571 -12.14286,-10 z"
       id="path37"
       inkscape:connector-curvature="0" />
    <path
       style="fill:#000000;stroke:#000000;stroke-width:1px;stroke-linecap:butt;stroke-linejoin:miter;stroke-opacity:1"
       d="m 222.85714,471.39045 c 0,0 33.57143,24.28572 35.71429,25.71429 2.14286,1.42857 26.42857,-11.42857 7.85714,-23.57143 C 247.85714,461.39045 220,462.10474 222.85714,471.39045 Z"
       id="path39"
       inkscape:connector-curvature="0" />
  </g>
</svg>
