<?xml version="1.0" encoding="UTF-8" standalone="no"?>
<!-- Created with Inkscape (http://www.inkscape.org/) -->

<svg
   xmlns:dc="http://purl.org/dc/elements/1.1/"
   xmlns:cc="http://creativecommons.org/ns#"
   xmlns:rdf="http://www.w3.org/1999/02/22-rdf-syntax-ns#"
   xmlns:svg="http://www.w3.org/2000/svg"
   xmlns="http://www.w3.org/2000/svg"
   xmlns:sodipodi="http://sodipodi.sourceforge.net/DTD/sodipodi-0.dtd"
   xmlns:inkscape="http://www.inkscape.org/namespaces/inkscape"
   width="512"
   height="512"
   viewBox="0 0 512 512"
   version="1.1"
   id="svg8"
   inkscape:version="0.92.3 (2405546, 2018-03-11)"
   sodipodi:docname="U+5468.svg">
  <defs
     id="defs2" />
  <sodipodi:namedview
     id="base"
     pagecolor="#ffffff"
     bordercolor="#666666"
     borderopacity="1.0"
     inkscape:pageopacity="0.0"
     inkscape:pageshadow="2"
     inkscape:zoom="1.4"
     inkscape:cx="202.1808"
     inkscape:cy="229.97646"
     inkscape:document-units="px"
     inkscape:current-layer="layer1"
     showgrid="false"
     units="px"
     inkscape:window-width="1680"
     inkscape:window-height="987"
     inkscape:window-x="2040"
     inkscape:window-y="88"
     inkscape:window-maximized="1">
    <inkscape:grid
       type="xygrid"
       id="grid10" />
  </sodipodi:namedview>
  <metadata
     id="metadata5">
    <rdf:RDF>
      <cc:Work
         rdf:about="">
        <dc:format>image/svg+xml</dc:format>
        <dc:type
           rdf:resource="http://purl.org/dc/dcmitype/StillImage" />
        <dc:title></dc:title>
      </cc:Work>
    </rdf:RDF>
  </metadata>
  <g
     inkscape:label="圖層 1"
     inkscape:groupmode="layer"
     id="layer1"
     transform="translate(0,-161.53331)">
    <path
       style="fill:#000000;stroke:#000000;stroke-width:1px;stroke-linecap:butt;stroke-linejoin:miter;stroke-opacity:1"
       d="m 117.14286,259.24759 c 0,0 -5.71429,-10.71428 -12.14286,-1.42857 -6.428571,9.28572 -5.714286,14.28572 -0.71429,17.85715 5,3.57143 36.42858,17.85714 32.14286,89.28571 -4.28571,71.42857 -2.14286,135 -32.14286,178.57143 -29.999996,43.57143 -47.142853,76.42857 -17.857138,49.28571 29.285718,-27.14285 46.428568,-60 48.571428,-74.28571 2.14286,-14.28571 17.14286,-155 17.14286,-155 0,0 5.71428,-57.85714 -10.71429,-78.57143 C 125,264.2476 117.14286,259.24759 117.14286,259.24759 Z"
       id="path221"
       inkscape:connector-curvature="0" />
    <path
       style="fill:#000000;stroke:#000000;stroke-width:1px;stroke-linecap:butt;stroke-linejoin:miter;stroke-opacity:1"
       d="m 161.42857,230.67617 c 0,0 -15,-2.85715 -12.85714,6.42857 2.14286,9.28571 21.42857,25.71428 25,26.42857 3.57143,0.71429 10,-1.42857 10.71428,-3.57143 0.71429,-2.14286 86.42858,-35 122.85715,-40 36.42857,-5 60.71428,-7.14286 55.71428,12.14286 -5,19.28571 10,251.42857 15.71429,275.71428 5.71428,24.28572 2.85714,27.85715 -7.14286,25 -10,-2.85714 -46.42857,-14.28571 -28.57143,2.85715 17.85715,17.14285 36.42857,50.71428 43.57143,56.42857 7.14286,5.71428 20,22.14286 23.57143,-3.57143 3.57143,-25.71429 -12.14286,-96.42857 -12.14286,-96.42857 0,0 -23.57143,-162.85714 -16.42857,-200.71429 7.14286,-37.85714 27.14286,-66.42857 7.85714,-79.28571 C 370,199.24759 367.14286,194.24759 337.85714,199.24759 c -29.28571,5 -176.42857,31.42858 -176.42857,31.42858 z"
       id="path223"
       inkscape:connector-curvature="0" />
    <path
       style="fill:#000000;stroke:#000000;stroke-width:1px;stroke-linecap:butt;stroke-linejoin:miter;stroke-opacity:1"
       d="m 186.42857,307.81902 c 0,0 -12.14286,-1.42857 -2.14286,10.71429 10,12.14286 26.42858,27.85714 43.57143,18.57143 17.14286,-9.28572 43.57143,-25.71429 47.85715,-31.42857 4.28571,-5.71429 18.57142,-18.57143 8.57142,-21.42857 -10,-2.85715 -81.42857,25 -81.42857,25 0,0 -2.85714,4.28571 -16.42857,-1.42858 z"
       id="path225"
       inkscape:connector-curvature="0" />
    <path
       style="fill:#000000;stroke:#000000;stroke-width:1px;stroke-linecap:butt;stroke-linejoin:miter;stroke-opacity:1"
       d="m 180,377.81902 c 0,0 -21.42857,0 -9.28571,12.14286 12.14285,12.14286 22.85714,17.85714 34.28571,7.85714 11.42857,-10 88.57143,-30 88.57143,-30 0,0 27.85714,-8.57142 2.85714,-14.28571 C 271.42857,347.81902 180,377.81902 180,377.81902 Z"
       id="path227"
       inkscape:connector-curvature="0" />
    <path
       style="fill:#000000;stroke:#000000;stroke-width:1px;stroke-linecap:butt;stroke-linejoin:miter;stroke-opacity:1"
       d="m 210.71429,282.10474 c 0,0 17.14285,52.85714 19.28571,70.71428 2.14286,17.85715 8.57143,27.14286 15,3.57143 6.42857,-23.57143 7.85714,-70 0.71429,-74.28571 -7.14286,-4.28572 -27.85715,-22.85715 -38.57143,-17.85714 -10.71429,5 -18.57143,8.57142 3.57143,17.85714 z"
       id="path229"
       inkscape:connector-curvature="0" />
    <path
       style="fill:#000000;stroke:#000000;stroke-width:1px;stroke-linecap:butt;stroke-linejoin:miter;stroke-opacity:1"
       d="m 197.85714,429.96188 c 0,0 -36.42857,-22.85714 -17.14285,12.85714 19.28571,35.71429 21.42857,52.85715 21.42857,52.85715 0,0 9.28571,17.14285 15.71428,1.42857 6.42857,-15.71429 5.71429,-39.28572 -0.71428,-47.85714 -6.42857,-8.57143 -19.28572,-19.28572 -19.28572,-19.28572 z"
       id="path231"
       inkscape:connector-curvature="0" />
    <path
       style="fill:#000000;stroke:#000000;stroke-width:1px;stroke-linecap:butt;stroke-linejoin:miter;stroke-opacity:1"
       d="m 193.75,433.17617 c 0,0 9.46429,18.57143 16.07143,17.5 6.60714,-1.07143 32.5,-14.82143 32.5,-14.82143 l 20,-8.03572 c 0,0 12.5,-4.64285 7.67857,10.71429 -4.82143,15.35714 -9.46429,35.89286 -9.46429,35.89286 l 3.03572,8.57143 c 0,0 10.35714,15.71428 18.57143,-9.82143 8.21428,-25.53572 11.60714,-38.39286 17.5,-42.67857 5.89285,-4.28572 15.17857,-16.96429 -1.07143,-23.75 -16.25,-6.78572 -13.21429,-9.10715 -23.75,-3.57143 -10.53572,5.53571 -33.57143,14.10714 -50.53572,19.28571 -16.96428,5.17857 -30.53571,10.71429 -30.53571,10.71429 z"
       id="path233"
       inkscape:connector-curvature="0" />
    <path
       style="fill:#000000;stroke:#000000;stroke-width:1px;stroke-linecap:butt;stroke-linejoin:miter;stroke-opacity:1"
       d="m 208.92857,486.56902 c 0,0 0.35714,16.42858 10.53572,13.03572 10.17857,-3.39286 39.46428,-9.46429 53.75,-10 14.28571,-0.53572 23.39285,-2.5 23.39285,-2.5 0,0 5.89286,-2.67857 3.75,-8.03572 -2.14285,-5.35714 1.78572,-13.03571 -22.67857,-8.75 -24.46428,4.28572 -66.07143,15 -68.75,16.25 z"
       id="path235"
       inkscape:connector-curvature="0" />
  </g>
</svg>
