<?xml version="1.0" encoding="UTF-8" standalone="no"?>
<!-- Created with Inkscape (http://www.inkscape.org/) -->

<svg
   xmlns:dc="http://purl.org/dc/elements/1.1/"
   xmlns:cc="http://creativecommons.org/ns#"
   xmlns:rdf="http://www.w3.org/1999/02/22-rdf-syntax-ns#"
   xmlns:svg="http://www.w3.org/2000/svg"
   xmlns="http://www.w3.org/2000/svg"
   xmlns:sodipodi="http://sodipodi.sourceforge.net/DTD/sodipodi-0.dtd"
   xmlns:inkscape="http://www.inkscape.org/namespaces/inkscape"
   width="512"
   height="512"
   viewBox="0 0 512 512"
   version="1.1"
   id="svg8"
   inkscape:version="0.92.3 (2405546, 2018-03-11)"
   sodipodi:docname="U+55E3.svg">
  <defs
     id="defs2" />
  <sodipodi:namedview
     id="base"
     pagecolor="#ffffff"
     bordercolor="#666666"
     borderopacity="1.0"
     inkscape:pageopacity="0.0"
     inkscape:pageshadow="2"
     inkscape:zoom="0.98994949"
     inkscape:cx="134.99808"
     inkscape:cy="227.28033"
     inkscape:document-units="px"
     inkscape:current-layer="layer1"
     showgrid="false"
     units="px"
     inkscape:window-width="1680"
     inkscape:window-height="987"
     inkscape:window-x="2040"
     inkscape:window-y="88"
     inkscape:window-maximized="1">
    <inkscape:grid
       type="xygrid"
       id="grid10" />
  </sodipodi:namedview>
  <metadata
     id="metadata5">
    <rdf:RDF>
      <cc:Work
         rdf:about="">
        <dc:format>image/svg+xml</dc:format>
        <dc:type
           rdf:resource="http://purl.org/dc/dcmitype/StillImage" />
        <dc:title></dc:title>
      </cc:Work>
    </rdf:RDF>
  </metadata>
  <g
     inkscape:label="圖層 1"
     inkscape:groupmode="layer"
     id="layer1"
     transform="translate(0,-161.53331)">
    <path
       style="fill:#000000;stroke:#000000;stroke-width:1px;stroke-linecap:butt;stroke-linejoin:miter;stroke-opacity:1"
       d="m 93.571429,265.67617 c 0,0 -14.285715,-6.42858 1.428571,10 15.71429,16.42857 36.42857,47.85714 38.57143,65.71428 2.14286,17.85715 17.14286,2.14286 17.14286,2.14286 l 65.71428,-10 c 0,0 16.42857,-8.57143 1.42857,-10.71429 -15,-2.14285 4.28572,-4.28571 6.42857,-10 2.14286,-5.71428 12.85715,-32.85714 15,-37.85714 2.14286,-5 10,-15.71429 -12.14285,-21.42857 -22.14286,-5.71429 -10.71429,-6.42857 -23.57143,-1.42857 -12.85714,5 -55,15 -55,15 0,0 -11.42857,-2.85714 -9.28572,3.57143 2.14286,6.42857 12.14286,22.14285 17.85715,17.85714 5.71428,-4.28571 39.28571,-15 39.28571,-15 0,0 12.85714,-5 10,10.71429 -2.85714,15.71428 -5.71428,32.14285 -5.71428,32.14285 0,0 0,3.57143 -9.28572,5 -9.28571,1.42857 -42.85714,11.42857 -42.85714,11.42857 0,0 -1.42857,-2.14285 -1.42857,-13.57142 0,-11.42858 -12.14286,-55.71429 -53.571431,-53.57143 z"
       id="path104"
       inkscape:connector-curvature="0" />
    <path
       style="fill:#000000;stroke:#000000;stroke-width:1px;stroke-linecap:butt;stroke-linejoin:miter;stroke-opacity:1"
       d="m 86.428572,389.96188 c 0,0 -14.285715,-10 2.857142,17.14286 C 106.42857,434.2476 105,454.96188 105.71429,459.2476 c 0.71428,4.28571 7.85714,47.14285 7.85714,47.14285 0,0 -6.42857,5 -4.28572,11.42857 2.14286,6.42858 21.42858,35.71429 22.85715,18.57143 1.42857,-17.14285 2.85714,-110 -18.57143,-126.42857 -21.428573,-16.42857 -27.142858,-20 -27.142858,-20 z"
       id="path106"
       inkscape:connector-curvature="0" />
    <path
       style="fill:#000000;stroke:#000000;stroke-width:1px;stroke-linecap:butt;stroke-linejoin:miter;stroke-opacity:1"
       d="m 132.85714,375.67617 c 0,0 -22.85714,2.85714 -10,10.71428 12.85715,7.85715 20.71429,16.42857 35,11.42857 14.28572,-5 70,-22.85714 82.85715,-22.85714 12.85714,0 20.71428,-8.57143 19.28571,10 -1.42857,18.57143 -3.57143,97.14286 -3.57143,97.14286 0,0 -5.71428,-2.14286 -5.71428,7.85714 0,10 2.14285,47.14286 15,17.14286 12.85714,-30 11.42857,-87.85714 11.42857,-87.85714 L 280,372.81902 c 0,0 -7.14286,-19.28571 -20.71429,-17.14285 -13.57142,2.14285 -123.57142,13.57143 -126.42857,20 z"
       id="path108"
       inkscape:connector-curvature="0" />
    <path
       style="fill:#000000;stroke:#000000;stroke-width:1px;stroke-linecap:butt;stroke-linejoin:miter;stroke-opacity:1"
       d="m 142.14286,432.10474 c 0,0 -12.85715,12.14286 0.71428,15.71428 13.57143,3.57143 12.85715,6.42858 52.85715,-11.42857 40,-17.85714 52.85714,-22.14285 29.28571,-27.85714 -23.57143,-5.71429 -82.85714,23.57143 -82.85714,23.57143 z"
       id="path110"
       inkscape:connector-curvature="0" />
    <path
       style="fill:#000000;stroke:#000000;stroke-width:1px;stroke-linecap:butt;stroke-linejoin:miter;stroke-opacity:1"
       d="m 154.28571,389.96188 2.85715,92.85714 c 0,0 5.71428,23.57143 11.42857,5 5.71428,-18.57142 9.28571,-77.85714 3.57143,-85.71428 -5.71429,-7.85714 -17.85715,-12.14286 -17.85715,-12.14286 z"
       id="path112"
       inkscape:connector-curvature="0" />
    <path
       style="fill:#000000;stroke:#000000;stroke-width:1px;stroke-linecap:butt;stroke-linejoin:miter;stroke-opacity:1"
       d="m 195,381.39045 c 0,0 12.14286,7.14286 10.71429,20.71429 -1.42858,13.57143 -6.42858,75 -6.42858,75 0,0 10,29.28571 13.57143,6.42857 C 216.42857,460.67617 225,402.10474 221.42857,397.81902 217.85714,393.53331 199.28571,374.2476 195,381.39045 Z"
       id="path114"
       inkscape:connector-curvature="0" />
    <path
       style="fill:#000000;stroke:#000000;stroke-width:1px;stroke-linecap:butt;stroke-linejoin:miter;stroke-opacity:1"
       d="m 281.42857,252.81902 c 0,0 -24.28571,-3.57143 -12.85714,8.57143 C 280,273.53331 287.85714,285.67617 310,274.96188 c 22.14286,-10.71428 52.14286,-13.57143 52.14286,-13.57143 0,0 33.57143,-6.42857 33.57143,18.57143 0,25 8.57142,234.28572 8.57142,234.28572 0,0 -3.57142,0.71428 -7.85714,2.85714 -4.28571,2.14286 -1.42857,7.14286 0.71429,13.57143 2.14285,6.42857 11.42857,47.14285 21.42857,30 10,-17.14286 2.85714,-27.85715 0.71428,-51.42857 -2.14285,-23.57143 -6.42857,-224.28572 -3.57142,-232.14286 2.85714,-7.85714 10.71428,-22.14286 -15,-32.85714 C 375,233.53331 376.42857,229.96188 371.42857,234.24759 c -5,4.28572 -90,18.57143 -90,18.57143 z"
       id="path116"
       inkscape:connector-curvature="0" />
    <path
       style="fill:#000000;stroke:#000000;stroke-width:1px;stroke-linecap:butt;stroke-linejoin:miter;stroke-opacity:1"
       d="m 288.57143,311.39045 c 0,0 -13.57143,2.14286 0,18.57143 13.57143,16.42857 19.28571,19.28572 25.71428,10 6.42858,-9.28571 36.42858,-15 36.42858,-15 0,0 20.71428,-4.28571 2.14285,-14.28571 -18.57143,-10 -47.14285,6.42857 -47.14285,6.42857 0,0 -2.14286,2.14286 -17.14286,-5.71429 z"
       id="path118"
       inkscape:connector-curvature="0" />
    <path
       style="fill:#000000;stroke:#000000;stroke-width:1px;stroke-linecap:butt;stroke-linejoin:miter;stroke-opacity:1"
       d="m 282.85714,387.81902 c 0,0 -21.42856,2.14287 -5.71428,31.42858 15.71428,29.28571 11.87957,29.29761 21.65407,37.50595 9.7745,8.20833 5.48878,1.06547 3.34593,-16.07738 C 300,423.53331 285.71429,389.96188 282.85714,387.81902 Z"
       id="path120"
       inkscape:connector-curvature="0" />
    <path
       style="fill:#000000;stroke:#000000;stroke-width:1px;stroke-linecap:butt;stroke-linejoin:miter;stroke-opacity:1"
       d="m 282.71644,392.20583 c 0,0 50.12882,-19.44544 50.6339,-19.69798 0.50508,-0.25254 10.48033,-7.57614 16.92006,-5.05076 6.43972,2.52538 29.01531,17.86193 29.01531,17.86193 0,0 7.5,6.42858 -7.5,26.07143 -15,19.64286 -20,28.92857 -24.64285,27.5 -4.64286,-1.42857 -0.35715,-12.5 2.14285,-22.85714 2.5,-10.35714 5.35715,-27.14286 -7.14285,-23.57143 -12.5,3.57143 -50,15 -55.35715,13.57143 -5.35714,-1.42857 -4.06927,-13.82748 -4.06927,-13.82748 z"
       id="path122"
       inkscape:connector-curvature="0" />
    <path
       style="fill:#000000;stroke:#000000;stroke-width:1px;stroke-linecap:butt;stroke-linejoin:miter;stroke-opacity:1"
       d="m 293.95439,441.7033 c 0,0 6.56599,22.72843 15.15229,18.18275 8.5863,-4.54569 44.44671,-17.1726 53.03301,-17.67767 8.58629,-0.50508 -9.59645,-14.14214 -9.59645,-14.14214 z"
       id="path124"
       inkscape:connector-curvature="0" />
  </g>
</svg>
