<?xml version="1.0" encoding="UTF-8" standalone="no"?>
<!-- Created with Inkscape (http://www.inkscape.org/) -->

<svg
   xmlns:dc="http://purl.org/dc/elements/1.1/"
   xmlns:cc="http://creativecommons.org/ns#"
   xmlns:rdf="http://www.w3.org/1999/02/22-rdf-syntax-ns#"
   xmlns:svg="http://www.w3.org/2000/svg"
   xmlns="http://www.w3.org/2000/svg"
   xmlns:sodipodi="http://sodipodi.sourceforge.net/DTD/sodipodi-0.dtd"
   xmlns:inkscape="http://www.inkscape.org/namespaces/inkscape"
   width="512"
   height="512"
   viewBox="0 0 512 512"
   version="1.1"
   id="svg8"
   inkscape:version="0.92.3 (2405546, 2018-03-11)"
   sodipodi:docname="U+8208.svg">
  <defs
     id="defs2" />
  <sodipodi:namedview
     id="base"
     pagecolor="#ffffff"
     bordercolor="#666666"
     borderopacity="1.0"
     inkscape:pageopacity="0.0"
     inkscape:pageshadow="2"
     inkscape:zoom="1.4142136"
     inkscape:cx="161.82908"
     inkscape:cy="235.36075"
     inkscape:document-units="px"
     inkscape:current-layer="layer1"
     showgrid="false"
     units="px"
     inkscape:window-width="1680"
     inkscape:window-height="987"
     inkscape:window-x="2040"
     inkscape:window-y="88"
     inkscape:window-maximized="1">
    <inkscape:grid
       type="xygrid"
       id="grid10" />
  </sodipodi:namedview>
  <metadata
     id="metadata5">
    <rdf:RDF>
      <cc:Work
         rdf:about="">
        <dc:format>image/svg+xml</dc:format>
        <dc:type
           rdf:resource="http://purl.org/dc/dcmitype/StillImage" />
        <dc:title></dc:title>
      </cc:Work>
    </rdf:RDF>
  </metadata>
  <g
     inkscape:label="圖層 1"
     inkscape:groupmode="layer"
     id="layer1"
     transform="translate(0,-161.53331)">
    <path
       style="fill:#000000;stroke:#000000;stroke-width:1px;stroke-linecap:butt;stroke-linejoin:miter;stroke-opacity:1"
       d="m 125.1579,324.92967 c 0,0 32.52691,70.71068 33.94113,95.45941 1.41421,24.74874 11.3137,28.28427 17.67766,31.1127 6.36397,2.82843 12.02082,-2.12132 7.07107,-15.55635 -4.94975,-13.43503 -23.33452,-81.31728 -26.87006,-94.0452 -3.53553,-12.72792 -7.07106,-31.8198 -28.99137,-28.99138 -21.92031,2.82843 -2.82843,12.02082 -2.82843,12.02082 z"
       id="path248"
       inkscape:connector-curvature="0" />
    <path
       style="fill:#000000;stroke:#000000;stroke-width:1px;stroke-linecap:butt;stroke-linejoin:miter;stroke-opacity:1"
       d="m 146.3711,273.31087 c 0,0 -9.89949,14.14214 14.14214,21.21321 24.04163,7.07106 27.57716,-2.82843 21.92031,-11.31371 -5.65686,-8.48528 -28.28427,-22.62742 -36.06245,-9.8995 z"
       id="path250"
       inkscape:connector-curvature="0" />
    <path
       style="fill:#000000;stroke:#000000;stroke-width:1px;stroke-linecap:butt;stroke-linejoin:miter;stroke-opacity:1"
       d="m 160.51324,341.19312 c 0,0 9.19239,-25.45584 21.92031,-14.84924 12.72792,10.6066 14.14213,12.72792 8.48528,18.38478 -5.65685,5.65685 -7.07107,1.41421 -30.40559,-3.53554 z"
       id="path252"
       inkscape:connector-curvature="0" />
    <path
       style="fill:#000000;stroke:#000000;stroke-width:1px;stroke-linecap:butt;stroke-linejoin:miter;stroke-opacity:1"
       d="m 176.77669,379.37689 c 0,0 -2.12132,11.31371 3.53554,16.26346 5.65685,4.94974 16.97056,7.77817 23.33452,3.53553 6.36396,-4.24264 7.77818,-4.24264 -0.7071,-12.72792 -8.48529,-8.48528 3.53553,-14.14214 -10.60661,-10.6066 -14.14213,3.53553 -15.55635,3.53553 -15.55635,3.53553 z"
       id="path254"
       inkscape:connector-curvature="0" />
    <path
       style="fill:#000000;stroke:#000000;stroke-width:1px;stroke-linecap:butt;stroke-linejoin:miter;stroke-opacity:1"
       d="m 196.57568,281.08905 c 0,0 8.48529,2.12132 10.60661,21.2132 2.12132,19.09188 14.14213,106.77312 14.14213,106.77312 0,0 -7.77817,7.07107 -13.43503,2.82843 -5.65685,-4.24264 17.67767,36.76955 17.67767,36.76955 0,0 8.48528,3.53554 7.77818,-2.82842 -0.70711,-6.36396 -3.53554,-19.79899 -3.53554,-19.79899 l -6.36396,-117.37973 c 0,0 0,-28.99138 -20.50609,-36.06244 -20.5061,-7.07107 -6.36397,8.48528 -6.36397,8.48528 z"
       id="path256"
       inkscape:connector-curvature="0" />
    <path
       style="fill:#000000;stroke:#000000;stroke-width:1px;stroke-linecap:butt;stroke-linejoin:miter;stroke-opacity:1"
       d="m 223.44574,247.14792 c 0,0 -16.97056,0.70711 -3.53553,17.67767 13.43503,16.97056 31.1127,16.97056 31.1127,16.97056 0,0 2.82842,-2.82842 4.94974,-4.94974 2.12132,-2.12132 41.0122,-21.21321 41.0122,-21.21321 0,0 9.89949,-0.7071 8.48528,14.84925 -1.41422,15.55635 -6.36396,132.22896 -9.8995,142.12846 -3.53553,9.89949 -12.02081,30.40559 -12.02081,30.40559 0,0 0,-3.53553 4.24264,7.77817 4.24264,11.31371 9.89949,28.99138 14.84924,6.36397 4.94975,-22.62742 11.31371,-164.75588 21.2132,-183.84777 9.8995,-19.09188 15.55635,-24.04163 4.24265,-33.94112 -11.31371,-9.8995 -27.57717,-9.19239 -33.94113,-7.07107 -6.36396,2.12132 -36.06245,15.55635 -70.71068,14.84924 z"
       id="path258"
       inkscape:connector-curvature="0" />
    <path
       style="fill:#000000;stroke:#000000;stroke-width:1px;stroke-linecap:butt;stroke-linejoin:miter;stroke-opacity:1"
       d="m 214.25335,312.90885 c 0,0 2.12132,17.67767 22.62742,13.43503 20.5061,-4.24264 38.89087,-16.26345 38.89087,-16.26345 0,0 2.82843,-14.14214 -11.3137,-11.31371 -14.14214,2.82842 -50.20459,14.14213 -50.20459,14.14213 z"
       id="path260"
       inkscape:connector-curvature="0" />
    <path
       style="fill:#000000;stroke:#000000;stroke-width:1px;stroke-linecap:butt;stroke-linejoin:miter;stroke-opacity:1"
       d="m 219.91021,366.64897 c 0,0 -1.41422,16.26345 10.6066,12.72792 12.02081,-3.53553 29.69848,-8.48528 29.69848,-8.48528 0,0 -1.41421,14.84924 -6.36396,25.45584 -4.94974,10.6066 2.12132,11.31371 11.31371,-2.82842 9.19239,-14.14214 14.14214,-27.57717 14.14214,-27.57717 0,0 0.7071,-7.07107 -8.48528,-12.02081 -9.19239,-4.94975 -21.92031,4.94974 -21.92031,4.94974 z"
       id="path262"
       inkscape:connector-curvature="0" />
    <path
       style="fill:#000000;stroke:#000000;stroke-width:1px;stroke-linecap:butt;stroke-linejoin:miter;stroke-opacity:1"
       d="m 225,408.78331 c 0,0 1.5,12.125 8.375,10.375 6.875,-1.75 36.75,-10.625 36.75,-10.625 0,0 17.625,-6.625 4,-11.375 -13.625,-4.75 -10.25,-3.625 -18.5,-0.75 -8.25,2.875 -29.75,10.75 -31.125,10.625 -1.375,-0.125 0.5,1.75 0.5,1.75 z"
       id="path264"
       inkscape:connector-curvature="0" />
    <path
       style="fill:#000000;stroke:#000000;stroke-width:1px;stroke-linecap:butt;stroke-linejoin:miter;stroke-opacity:1"
       d="m 316.07673,287.45301 c 0,0 5.65685,16.26345 28.99138,12.02081 23.33452,-4.24264 24.74874,-8.48528 24.74874,-8.48528 0,0 20.50609,-15.55635 4.24264,45.25484 -16.26346,60.81118 -22.62742,84.1457 -22.62742,84.1457 l -1.41421,4.94975 c 0,0 -9.8995,-8.48528 -4.94975,8.48528 4.94975,16.97056 12.72792,46.66905 16.97056,26.16295 4.24264,-20.50609 17.67767,-94.0452 30.40559,-125.1579 12.72792,-31.1127 9.19239,-32.52691 19.09189,-41.7193 9.89949,-9.19238 -20.5061,-22.62741 -23.33453,-25.45584 -2.82843,-2.82843 -12.72792,4.94975 -32.52691,11.31371 -19.79899,6.36396 -39.59798,8.48528 -39.59798,8.48528 z"
       id="path266"
       inkscape:connector-curvature="0" />
    <path
       style="fill:#000000;stroke:#000000;stroke-width:1px;stroke-linecap:butt;stroke-linejoin:miter;stroke-opacity:1"
       d="m 304.76302,339.77891 c 0,0 19.09188,21.92031 24.04163,18.38478 4.94975,-3.53554 21.21321,-4.94975 12.02082,-19.09189 -9.19239,-14.14213 -36.06245,0.70711 -36.06245,0.70711 z"
       id="path268"
       inkscape:connector-curvature="0" />
    <path
       style="fill:#000000;stroke:#000000;stroke-width:1px;stroke-linecap:butt;stroke-linejoin:miter;stroke-opacity:1"
       d="m 299.81327,410.48959 c 0,0 7.07107,19.09188 14.14214,14.84924 7.07107,-4.24264 15.55635,-1.41421 19.79899,-23.33452 4.24264,-21.92031 -33.94113,8.48528 -33.94113,8.48528 z"
       id="path270"
       inkscape:connector-curvature="0" />
    <path
       style="fill:#000000;stroke:#000000;stroke-width:1px;stroke-linecap:butt;stroke-linejoin:miter;stroke-opacity:1"
       d="m 30.405591,488.27133 c 0,0 -28.9913774,-0.7071 -7.071067,16.97057 21.92031,17.67767 17.677669,17.67767 31.112698,9.89949 13.435029,-7.77817 248.901588,-81.31728 332.340188,-61.51829 83.4386,19.79899 88.38835,26.16295 88.38835,26.16295 0,0 40.30508,-7.77817 7.77817,-29.69848 -32.52691,-21.92031 3.53553,-12.72792 -43.84062,-12.72792 -47.37615,0 -97.58074,-2.82843 -169.70563,8.48528 -72.12489,11.31371 -239.002089,42.4264 -239.002089,42.4264 z"
       id="path272"
       inkscape:connector-curvature="0" />
    <path
       style="fill:#000000;stroke:#000000;stroke-width:1px;stroke-linecap:butt;stroke-linejoin:miter;stroke-opacity:1"
       d="m 210.01071,481.90737 c 0,0 -2.82842,-11.31371 7.07107,-5.65685 9.8995,5.65685 21.92031,19.79899 14.14214,28.28427 -7.77818,8.48528 -34.64824,34.64823 -53.74012,36.76955 -19.09188,2.12132 -24.74874,7.07107 -5.65685,-6.36396 19.09188,-13.43503 38.18376,-53.03301 38.18376,-53.03301 z"
       id="path274"
       inkscape:connector-curvature="0" />
    <path
       style="fill:#000000;stroke:#000000;stroke-width:1px;stroke-linecap:butt;stroke-linejoin:miter;stroke-opacity:1"
       d="m 299.10617,479.07895 c 0,0 50.91169,46.66904 53.74011,50.20458 2.82843,3.53553 57.98276,30.40559 38.89088,7.07106 -19.09189,-23.33452 -67.17515,-57.98275 -92.63099,-57.27564 z"
       id="path276"
       inkscape:connector-curvature="0" />
  </g>
</svg>
