<?xml version="1.0" encoding="UTF-8" standalone="no"?>
<!-- Created with Inkscape (http://www.inkscape.org/) -->

<svg
   xmlns:dc="http://purl.org/dc/elements/1.1/"
   xmlns:cc="http://creativecommons.org/ns#"
   xmlns:rdf="http://www.w3.org/1999/02/22-rdf-syntax-ns#"
   xmlns:svg="http://www.w3.org/2000/svg"
   xmlns="http://www.w3.org/2000/svg"
   xmlns:sodipodi="http://sodipodi.sourceforge.net/DTD/sodipodi-0.dtd"
   xmlns:inkscape="http://www.inkscape.org/namespaces/inkscape"
   width="512"
   height="512"
   viewBox="0 0 512 512"
   version="1.1"
   id="svg8"
   inkscape:version="0.92.3 (2405546, 2018-03-11)"
   sodipodi:docname="U+97FB.svg">
  <defs
     id="defs2" />
  <sodipodi:namedview
     id="base"
     pagecolor="#ffffff"
     bordercolor="#666666"
     borderopacity="1.0"
     inkscape:pageopacity="0.0"
     inkscape:pageshadow="2"
     inkscape:zoom="0.49497475"
     inkscape:cx="701.35962"
     inkscape:cy="412.05797"
     inkscape:document-units="px"
     inkscape:current-layer="layer1"
     showgrid="false"
     units="px"
     inkscape:window-width="1680"
     inkscape:window-height="987"
     inkscape:window-x="2040"
     inkscape:window-y="88"
     inkscape:window-maximized="1">
    <inkscape:grid
       type="xygrid"
       id="grid10" />
  </sodipodi:namedview>
  <metadata
     id="metadata5">
    <rdf:RDF>
      <cc:Work
         rdf:about="">
        <dc:format>image/svg+xml</dc:format>
        <dc:type
           rdf:resource="http://purl.org/dc/dcmitype/StillImage" />
        <dc:title></dc:title>
      </cc:Work>
    </rdf:RDF>
  </metadata>
  <g
     inkscape:label="圖層 1"
     inkscape:groupmode="layer"
     id="layer1"
     transform="translate(0,-161.53331)">
    <path
       style="fill:#000000;stroke:#000000;stroke-width:1px;stroke-linecap:butt;stroke-linejoin:miter;stroke-opacity:1"
       d="m 145.46197,253.30985 c 0,0 -23.23351,-24.24366 2.0203,-17.17259 25.25382,7.07107 42.42641,19.1929 40.4061,35.35534 -2.0203,16.16244 -10.10152,29.29442 -24.24366,6.06091 C 149.50258,254.32 145.46197,253.30985 145.46197,253.30985 Z"
       id="path166"
       inkscape:connector-curvature="0" />
    <path
       style="fill:#000000;stroke:#000000;stroke-width:1px;stroke-linecap:butt;stroke-linejoin:miter;stroke-opacity:1"
       d="m 120.20815,291.69565 c 0,0 -24.243658,-10.10153 -16.16244,6.06091 8.08122,16.16244 -2.0203,24.24366 12.12183,26.26397 14.14214,2.0203 13.13199,4.04061 32.32488,-6.06092 19.1929,-10.10152 65.65992,-22.22335 65.65992,-22.22335 0,0 39.39595,-22.22336 -1.01015,-20.20305 -40.4061,2.0203 -92.93404,16.16244 -92.93404,16.16244 z"
       id="path170"
       inkscape:connector-curvature="0" />
    <path
       style="fill:#000000;stroke:#000000;stroke-width:1px;stroke-linecap:butt;stroke-linejoin:miter;stroke-opacity:1"
       d="m 109.09647,354.32511 c 0,0 -17.172588,-5.05077 -1.01015,10.10152 16.16244,15.15229 39.39595,39.39595 40.4061,22.22336 1.01016,-17.1726 8.08122,-20.20305 -39.39595,-32.32488 z"
       id="path172"
       inkscape:connector-curvature="0" />
    <path
       style="fill:#000000;stroke:#000000;stroke-width:1px;stroke-linecap:butt;stroke-linejoin:miter;stroke-opacity:1"
       d="m 191.92898,333.1119 c 0,0 11.11168,5.05076 6.06092,15.15229 -5.05076,10.10153 -30.30458,41.41625 -30.30458,41.41625 0,0 14.14214,0 28.28427,-12.12183 14.14214,-12.12183 28.28428,-24.24366 28.28428,-24.24366 0,0 11.11167,-6.06091 -2.02031,-17.17259 -13.13198,-11.11168 -22.22336,-18.18275 -30.30458,-3.03046 z"
       id="path174"
       inkscape:connector-curvature="0" />
    <path
       style="fill:#000000;stroke:#000000;stroke-width:1px;stroke-linecap:butt;stroke-linejoin:miter;stroke-opacity:1"
       d="m 30.304576,418.97487 c 0,0 -32.3248811,-9.09137 -13.131983,7.07107 19.192899,16.16244 18.182746,20.20305 38.385797,9.09137 20.203051,-11.11168 133.34014,-46.97209 170.2107,-48.9924 36.87057,-2.0203 42.93149,-4.54569 42.93149,-4.54569 0,0 14.64721,-5.05076 -4.54569,-10.6066 -19.1929,-5.55584 -66.16499,12.12183 -66.16499,12.12183 0,0 -79.80205,10.6066 -99.500027,14.14214 -19.697974,3.53553 -68.185297,21.71828 -68.185297,21.71828 z"
       id="path176"
       inkscape:connector-curvature="0" />
    <path
       style="fill:#000000;stroke:#000000;stroke-width:1px;stroke-linecap:butt;stroke-linejoin:miter;stroke-opacity:1"
       d="m 128.28937,431.60178 c 0,0 -13.13198,-12.62691 -6.06091,5.05076 7.07107,17.67767 12.12183,83.33758 12.12183,83.33758 l 1.51523,19.69798 c 0,0 13.63706,12.12183 13.63706,4.54568 0,-7.57614 -4.54569,-68.18529 -4.54569,-68.18529 0,0 2.52538,-27.7792 -3.03046,-33.33504 -5.55584,-5.55584 -13.63706,-11.11167 -13.63706,-11.11167 z"
       id="path180"
       inkscape:connector-curvature="0" />
    <path
       style="fill:#000000;stroke:#000000;stroke-width:1px;stroke-linecap:butt;stroke-linejoin:miter;stroke-opacity:1"
       d="m 139.40105,424.02563 c 0,0 14.64721,9.59645 20.70813,10.10153 6.06091,0.50507 31.31473,-10.10153 37.88072,-8.5863 6.56599,1.51523 16.16244,-2.52538 17.67767,13.13198 1.51523,15.65737 9.09137,77.27667 5.05076,83.33759 -4.04061,6.06091 -7.07107,3.03046 -3.03046,10.6066 4.04061,7.57614 15.65737,21.71828 17.67767,10.6066 2.02031,-11.11168 -6.56599,-72.22591 -3.03045,-85.35789 3.53553,-13.13198 9.09137,-34.85026 -2.52539,-41.92133 -11.61675,-7.07107 -10.10152,-9.59645 -29.7995,-6.56599 -19.69797,3.03046 -49.49747,7.07106 -60.60915,14.64721 z"
       id="path182"
       inkscape:connector-curvature="0" />
    <path
       style="fill:#000000;stroke:#000000;stroke-width:1px;stroke-linecap:butt;stroke-linejoin:miter;stroke-opacity:1"
       d="m 156.32111,468.72488 c 0,0 -9.34391,1.26269 -0.25254,9.09137 9.09137,7.82869 16.41498,18.43529 25.50635,3.283 9.09137,-15.15229 14.64721,-19.69797 5.80838,-20.70813 -8.83884,-1.01015 -4.04061,-3.03045 -31.06219,8.33376 z"
       id="path184"
       inkscape:connector-curvature="0" />
    <path
       style="fill:#000000;stroke:#000000;stroke-width:1px;stroke-linecap:butt;stroke-linejoin:miter;stroke-opacity:1"
       d="m 158.34141,517.96982 c 0,0 -19.44543,2.27284 -2.27284,7.82868 17.17259,5.55584 20.20305,9.34391 25.75889,4.79822 5.55584,-4.54568 22.47589,-13.63705 22.47589,-13.63705 0,0 13.8896,-10.60661 -5.80837,-7.32361 -19.69798,3.283 -40.15357,8.33376 -40.15357,8.33376 z"
       id="path186"
       inkscape:connector-curvature="0" />
    <path
       style="fill:#000000;stroke:#000000;stroke-width:1px;stroke-linecap:butt;stroke-linejoin:miter;stroke-opacity:1"
       d="m 317.69298,215.93421 c 0,0 29.29442,10.10152 19.19289,29.7995 -10.10152,19.69797 -38.89087,62.62945 -38.89087,62.62945 0,0 -8.08122,26.26397 18.18275,-0.50507 26.26396,-26.76904 54.54823,-55.55839 54.54823,-55.55839 l 12.12183,-9.09138 c 0,0 5.05077,-12.6269 -8.58629,-14.14213 -13.63706,-1.51523 -35.86042,-13.13198 -35.86042,-13.13198 0,0 -19.1929,-8.5863 -20.70812,0 z"
       id="path188"
       inkscape:connector-curvature="0" />
    <path
       style="fill:#000000;stroke:#000000;stroke-width:1px;stroke-linecap:butt;stroke-linejoin:miter;stroke-opacity:1"
       d="m 282.33764,300.28194 c 0,0 -34.85027,2.52539 -23.73859,22.22336 11.11168,19.69797 15.15229,24.24366 22.22336,20.20305 7.07107,-4.04061 4.04061,-10.10152 14.64721,-12.12183 10.6066,-2.0203 123.74369,-40.91118 123.74369,-40.91118 0,0 30.30457,-14.64721 0,-9.09137 -30.30458,5.55584 -96.46957,23.23351 -96.46957,23.23351 0,0 -21.71828,7.57614 -40.4061,-3.53554 z"
       id="path190"
       inkscape:connector-curvature="0" />
    <path
       style="fill:#000000;stroke:#000000;stroke-width:1px;stroke-linecap:butt;stroke-linejoin:miter;stroke-opacity:1"
       d="m 399.01026,264.42153 c 0,0 30.30457,32.32488 44.44671,40.91118 14.14213,8.58629 19.1929,13.13198 16.66751,-7.07107 -2.52538,-20.20305 -26.76904,-29.29442 -26.76904,-29.29442 0,0 -11.61675,-11.11168 -34.34518,-4.54569 z"
       id="path192"
       inkscape:connector-curvature="0" />
    <path
       style="fill:#000000;stroke:#000000;stroke-width:1px;stroke-linecap:butt;stroke-linejoin:miter;stroke-opacity:1"
       d="m 294.96454,372.00278 c 0,0 -8.58629,-12.12184 9.59645,-5.05077 18.18275,7.07107 20.70813,9.09138 18.18275,39.39595 -2.52538,30.30458 6.06091,73.23606 5.55584,74.75129 -0.50508,1.51523 -2.02031,16.66752 -12.62691,2.52538 0,0 -3.53553,-9.09137 -4.54569,-38.3858 -1.01015,-29.29442 -0.50507,-57.07361 -7.07106,-63.63961 -6.566,-6.56599 -9.09138,-9.59644 -9.09138,-9.59644 z"
       id="path196"
       inkscape:connector-curvature="0" />
    <path
       style="fill:#000000;stroke:#000000;stroke-width:1px;stroke-linecap:butt;stroke-linejoin:miter;stroke-opacity:1"
       d="m 321.73359,344.72866 c 0,0 -13.13199,5.05076 9.09137,11.61675 22.22335,6.56599 14.14213,-0.50508 16.66752,-0.50508 2.52538,0 16.66751,-10.10152 33.84011,-8.08122 17.17259,2.02031 25.25381,-8.58629 25.75889,16.66752 0.50507,25.25381 6.06091,127.7843 6.06091,127.7843 0,0 -10.10152,-3.53554 -5.55584,8.08122 4.54569,11.61675 9.59645,34.34518 8.5863,31.8198 -1.01015,-2.52538 16.16244,32.82996 15.15229,-11.61675 -1.01016,-44.44671 1.01015,-161.11933 1.01015,-161.11933 0,0 2.52538,-29.29443 -28.78935,-29.7995 -31.31473,-0.50508 -81.82235,15.15229 -81.82235,15.15229 z"
       id="path198"
       inkscape:connector-curvature="0" />
    <path
       style="fill:#000000;stroke:#000000;stroke-width:1px;stroke-linecap:butt;stroke-linejoin:miter;stroke-opacity:1"
       d="m 323.75389,403.3175 c 2.52538,0 13.63706,3.03046 19.69798,4.54569 6.06091,1.51523 39.39594,-17.17259 39.39594,-17.17259 0,0 11.11168,-7.57615 -3.53553,-7.57615 -14.64721,0 -9.59645,-3.03045 -29.7995,8.08122 -20.20305,11.11168 -25.75889,12.12183 -25.75889,12.12183 z"
       id="path200"
       inkscape:connector-curvature="0" />
    <path
       style="fill:#000000;stroke:#000000;stroke-width:1px;stroke-linecap:butt;stroke-linejoin:miter;stroke-opacity:1"
       d="m 328.29958,445.23883 14.14213,7.57615 40.91118,-13.13198 c 0,0 15.65737,-7.57615 0.50508,-12.12183 -15.15229,-4.54569 -34.85027,11.61675 -41.92133,14.14213 -7.07107,2.52538 -13.63706,3.53553 -13.63706,3.53553 z"
       id="path202"
       inkscape:connector-curvature="0" />
    <path
       style="fill:#000000;stroke:#000000;stroke-width:1px;stroke-linecap:butt;stroke-linejoin:miter;stroke-opacity:1"
       d="m 276.7818,503.32261 c 0,0 -16.66752,1.01015 -4.54569,8.08122 12.12183,7.07106 4.04061,8.08122 22.72843,2.0203 18.68783,-6.06091 85.35789,-23.23351 85.35789,-23.23351 l 35.03471,-7.90731 c 0,0 0,-12.85714 -19.10714,-8.57143 -19.10714,4.28572 -118.92857,29.82143 -118.92857,29.82143 z"
       id="path204"
       inkscape:connector-curvature="0" />
    <path
       style="fill:#000000;stroke:#000000;stroke-width:1px;stroke-linecap:butt;stroke-linejoin:miter;stroke-opacity:1"
       d="m 327.7945,526.05104 -56.06347,62.12438 c 0,0 13.13199,1.01015 27.27412,-9.59645 14.14214,-10.6066 34.85027,-28.78935 34.85027,-28.78935 0,0 5.55584,-31.31473 -6.06092,-23.73858 z"
       id="path206"
       inkscape:connector-curvature="0" />
    <path
       style="fill:#000000;stroke:#000000;stroke-width:1px;stroke-linecap:butt;stroke-linejoin:miter;stroke-opacity:1"
       d="m 401.53564,527.56627 c 0,0 38.38579,61.11423 45.96194,66.67007 7.57614,5.55583 26.26396,22.22335 23.23351,-8.5863 -3.03046,-30.80965 -33.84011,-42.93148 -33.84011,-42.93148 0,0 -27.7792,-20.20306 -35.35534,-15.15229 z"
       id="path208"
       inkscape:connector-curvature="0" />
  </g>
</svg>
