<?xml version="1.0" encoding="iso-8859-1"?>
<!-- Generator: Adobe Illustrator 19.0.0, SVG Export Plug-In . SVG Version: 6.00 Build 0)  -->
<svg version="1.1" id="Capa_1" xmlns="http://www.w3.org/2000/svg" xmlns:xlink="http://www.w3.org/1999/xlink" x="0px" y="0px"
	 viewBox="0 0 297 297" style="enable-background:new 0 0 297 297;" xml:space="preserve">
<g>
	<polygon points="88.57,41 84.496,54 92.758,54 88.706,41 	"/>
	<polygon points="209.07,239 204.996,252 213.258,252 209.206,239 	"/>
	<path d="M255.5,20c0-11.046-8.954-20-20-20h-174c-11.046,0-20,8.954-20,20v257c0,11.046,8.954,20,20,20h174
		c11.046,0,20-8.954,20-20V20z M94.379,59H82.875l-2.229,7h-6.641l11.278-33h6.731l11.232,33h-6.641L94.379,59z M172.143,180.686
		c-6.773,0-12.943-2.55-17.628-6.731c0.336,8.733,1.472,20.602,5.003,27.046h-21.369c3.536-6.451,4.67-18.326,5.004-27.046
		c-4.684,4.182-10.855,6.731-17.629,6.731c-14.635,0-26.5-11.864-26.5-26.5c0-13.765,10.496-25.075,23.92-26.372
		c-0.418-1.87-0.646-3.812-0.646-5.809c0-14.635,11.863-26.499,26.5-26.499c14.635,0,26.498,11.864,26.498,26.499
		c0,1.994-0.227,3.935-0.646,5.803c13.459,1.264,23.994,12.588,23.994,26.378C198.643,168.821,186.777,180.686,172.143,180.686z
		 M217.107,264l-2.229-7h-11.504l-2.229,7h-6.641l11.278-33h6.731l11.232,33H217.107z"/>
</g>
<g>
</g>
<g>
</g>
<g>
</g>
<g>
</g>
<g>
</g>
<g>
</g>
<g>
</g>
<g>
</g>
<g>
</g>
<g>
</g>
<g>
</g>
<g>
</g>
<g>
</g>
<g>
</g>
<g>
</g>
</svg>
