<?xml version="1.0" encoding="iso-8859-1"?>
<!-- Generator: Adobe Illustrator 19.0.0, SVG Export Plug-In . SVG Version: 6.00 Build 0)  -->
<svg version="1.1" id="Capa_1" xmlns="http://www.w3.org/2000/svg" xmlns:xlink="http://www.w3.org/1999/xlink" x="0px" y="0px"
	 viewBox="0 0 297 297" style="enable-background:new 0 0 297 297;" xml:space="preserve">
<g>
	<polygon points="88.57,41 84.496,54 92.758,54 88.706,41 	"/>
	<path d="M255.5,20c0-11.046-8.954-20-20-20h-174c-11.046,0-20,8.954-20,20v257c0,11.046,8.954,20,20,20h174
		c11.046,0,20-8.954,20-20V20z M80.646,66h-6.641l11.278-33h6.731l11.232,33h-6.641l-2.229-7H82.875L80.646,66z M149.285,201.217
		c-80.88-51.611-58.451-97.586-37.032-104.434c18.051-5.769,29.583,4.773,37.032,17.056c6.201-13.717,18.983-22.824,37.034-17.056
		C207.737,103.631,230.167,149.605,149.285,201.217z M217.107,264l-2.229-7h-11.504l-2.229,7h-6.641l11.278-33h6.731l11.232,33
		H217.107z"/>
	<polygon points="209.07,239 204.996,252 213.258,252 209.206,239 	"/>
</g>
<g>
</g>
<g>
</g>
<g>
</g>
<g>
</g>
<g>
</g>
<g>
</g>
<g>
</g>
<g>
</g>
<g>
</g>
<g>
</g>
<g>
</g>
<g>
</g>
<g>
</g>
<g>
</g>
<g>
</g>
</svg>
