<?xml version="1.0" standalone="no"?>
<!DOCTYPE svg PUBLIC "-//W3C//DTD SVG 1.1//EN" "http://www.w3.org/Graphics/SVG/1.1/DTD/svg11.dtd" >
<svg xmlns="http://www.w3.org/2000/svg" xmlns:xlink="http://www.w3.org/1999/xlink" version="1.1" viewBox="0 -52 256 256">
  <g transform="matrix(1 0 0 -1 0 204)">
   <path fill="currentColor"
d="M133 83l6 -3q2 -1 4 -1q2 -1 2 -3t-2 -2q-8 -4 -19 -15q6 2 19 4l6 2l-2 8q-3 2 1 1q4 -3 8 -8q19 2 36 1q10 -2 20 -14q4 -5 1 -7q-3 -3 -3 -7q-4 -27 -22 -39q-5 -2 -9 0q-8 6 -17 15q-4 5 1 1q14 -10 21 -11q20 9 21 46q-2 7 -12 12q-17 2 -38 -1q-2 -29 -3 -61
q0 -7 3 -10q3 -2 5 -7q0 -1 -3 -3q-3 0 -5 5q-3 7 -8 11q-1 3 3 4q3 0 3 4v20v36q-14 -2 -26 -6v-3q0 -7 3 -12q1 -2 3 -15q-2 -5 -5 -1q-3 5 -2 13q-1 10 -3 17l-6 -2q-3 -2 -1 2q5 3 6 3q5 6 10 14q1 1 3 4q3 4 -1 7q-2 2 2 1zM104 45q-2 -2 0 -6t1 -8q-2 -2 -1 -3
q0 -1 1 -3q4 -9 7 -11q0 -3 -1 -4q-2 -1 -3 1q-11 9 -8 14q1 8 0 15q-1 4 3 6q2 0 1 -1zM156 195q1 5 17 -3q4 -5 -2 -7q-6 2 -12 1q-5 -1 -21 -6q6 -4 9 -13q39 8 64 -1q8 -3 14 -22q0 -4 -1 -5q-2 -1 -4 1q-1 1 -5 0q-7 -3 -17 -4q-9 -1 -14 0q-3 0 0 2q16 3 29 9
q8 5 -2 14q-23 9 -64 1q-1 -2 -2 -8q0 -8 -1 -14q14 5 20 13q5 4 2 4q-2 1 1 2q2 0 5 -3h2q1 -2 -1 -5q-4 -2 -9 -5q-4 -2 -7 -3q-8 -4 -13 -5q-2 -24 -2 -39q3 0 12 2q5 2 8 3q4 7 8 7q7 -2 16 -8q2 -3 -2 -2q-11 1 -31 -7l-6 -2q-3 -2 -5 -2q-3 -1 0 2h2q2 1 3 2q2 2 0 2
q-27 -11 -31 -10q-6 0 -10 2q-3 1 1 2q2 -1 7 0q4 0 12 3h3q5 2 9 4q-1 6 -3 12l-1 1q0 1 3 3q1 6 1 12q-6 -5 -16 -16q-5 -6 -7 -8q-4 -5 -5 -2q-2 2 -1 12q0 4 2 1t4 -1q5 3 18 14q3 2 5 4v10q1 13 1 20q-10 -3 -22 -9q-4 -2 -11 0q-3 0 -3 1q-1 1 2 2l18 6q9 3 15 6
q0 10 -1 12q-2 2 0 3q-2 0 -4 -1q-9 0 -14 2q-3 0 -3 1q1 1 4 2q10 0 29 6q6 2 7 5zM120 140q4 2 12 1q3 -4 -2 -6q-3 -1 -7 -3q-1 -1 -2 -1q-3 -2 -4 -2l1 3q2 2 -8 4q-2 0 0 1q5 0 10 3zM99 146h-1q-3 -11 0 -20q1 -6 1 -8q-4 -4 -6 -1q-5 7 -4 17q-1 4 2 4q2 -2 6 8
q2 2 2 0zM178 124q3 -9 -4 -8q-6 3 -9 3q-3 -2 -2 2q2 4 -12 8q-2 0 -2 1t2 2q14 -3 27 -8zM74 184q2 -4 7 -8q1 -1 2 -1q3 -3 3 -4t-4 -3q-6 -3 -10 -20q-6 -18 -8 -61q-2 -42 2 -70v-4t2 -3q6 -8 15 -15q0 -5 -5 -5q-8 10 -24 16q-6 3 -3 9q2 1 8 2q4 -3 4 6q-1 7 -1 20
q-2 47 2 102q-31 -50 -50 -66q-8 -6 -2 2q24 29 55 86q5 10 5 15q-2 7 2 2z" />
  </g>

</svg>
