<?xml version="1.0" standalone="no"?>
<!DOCTYPE svg PUBLIC "-//W3C//DTD SVG 1.1//EN" "http://www.w3.org/Graphics/SVG/1.1/DTD/svg11.dtd" >
<svg xmlns="http://www.w3.org/2000/svg" xmlns:xlink="http://www.w3.org/1999/xlink" version="1.1" viewBox="0 -52 256 256">
  <g transform="matrix(1 0 0 -1 0 204)">
   <path fill="currentColor"
d="M125 216q6 -5 9 -8q2 -2 1 -7q-3 -8 -3 -16q3 -1 8 1q2 -1 5 2q1 0 2 1q2 3 19 0q3 -1 3 -3q0 -3 -3 -3q-13 -2 -35 -9q0 -3 -1 -10v-10q31 5 40 6t14 -1q6 0 27 -23q2 -3 1 -4q0 -1 -3 -1q-12 0 -17 -9q-21 -34 -44 -37q-6 -1 -21 10q0 -4 1 -4q6 -5 7 -7q0 -3 -4 -6
q23 -36 53 -52q9 -5 18 -5q24 1 35 -5q2 -2 2 -3q-1 -2 -3 -2q-10 -1 -19 -1q-6 0 -11 1q-13 -1 -19 6q-47 37 -59 55q-1 -60 -1 -72q1 -17 5 -28q0 -3 -2 -5q-3 -2 -5 0q-16 16 -29 33q-4 3 -2 3q1 0 5 -3q4 -1 8 -5q7 -5 10 -7t4 -2q1 1 1 4q3 33 -1 79q-50 -48 -82 -65
q-4 -2 -5 -1q0 2 4 4q48 33 82 76q-6 5 -3 10q-12 -2 -21 -7q-4 -2 -7 0q-2 2 0 6t-6 6q-9 1 -5 9q3 3 -4 10q-11 9 -8 14q-2 1 9 11q5 4 3 2q21 17 27 20q5 1 1 -2l-5 -5q-18 -14 -26 -23q-4 -3 1 -9q10 -14 21 -22q1 -2 3 -3l3 -3h2q5 1 15 4v19q-24 -11 -33 -5q-4 0 -3 2
q0 1 4 2q16 1 32 9v17q-9 -3 -19 -7q-7 -4 -19 -2q-4 0 0 2q6 2 11 4q14 7 28 11v17q-2 -1 -5 -3l-4 -2q-3 -2 -4 -1t2 4q1 0 6 6q-19 -6 -29 -2q-4 1 0 2q20 3 35 8v9q0 16 -1 24q0 1 1 2q1 0 3 -1zM173 157q-24 -4 -43 -10q-2 -11 -1 -17q15 4 15 5q1 3 8 4q3 -1 7 -1h7
q1 -1 1 -2q0 -2 -1 -2q-6 -3 -33 -11q-4 -1 -5 -1q0 -4 -1 -11q-1 -6 0 -8q12 1 23 5t14 0q2 -4 -2 -6q-11 0 -28 -4q16 -8 30 3q19 16 23 46q-3 10 -14 10z" />
  </g>

</svg>
