<?xml version="1.0" standalone="no"?>
<!DOCTYPE svg PUBLIC "-//W3C//DTD SVG 1.1//EN" "http://www.w3.org/Graphics/SVG/1.1/DTD/svg11.dtd" >
<svg xmlns="http://www.w3.org/2000/svg" xmlns:xlink="http://www.w3.org/1999/xlink" version="1.1" viewBox="0 0 256 256">
  <g transform="matrix(1 0 0 -1 0 204)">
   <path fill="currentColor"
d="M139 207q9 -8 6 -14q-11 -19 -22 -23q-2 -2 -1 2q24 25 16 34q-1 1 1 1zM190 189q2 0 5 -1q2 -1 9 -3q2 -1 2 -3q0 -3 -6 -3l-14 -2h-3q-10 -2 -31 -4h-4q-3 1 0 2q3 0 11 2q19 3 23 6q5 0 5 4q1 2 3 2zM73 188q0 2 2 1q7 -5 4 -11q-11 -21 -29 -35q-2 -2 -1 2
q14 16 22 31q3 8 2 12zM97 170q0 1 3 1q1 -1 5 0q3 1 4 1q5 0 4 -2q0 -3 -2 -2q-15 -3 -22 -8q2 -6 5 -11q0 -2 -2 -3h-1q-2 -1 -3 2q0 1 -2 3v2q-3 3 -4 6q-4 0 -7 2q-2 0 1 1q13 2 21 8zM142 169q7 -5 9 -7q1 -1 -1 -3q-9 -4 -28 -10q-3 0 0 2q20 12 19 17q-1 1 1 1z
M193 145q2 -5 7 -9q0 -1 1 -1q2 -2 1 -4q0 -4 -5 -5t-4 -17q-1 -61 11 -113q2 -10 7 -17q0 -2 -2 -3v-1q-3 0 -5 1v1q-7 10 -14 15q-9 8 -17 19q-1 1 1 1q8 -9 19 -15q5 -4 6 0q-8 42 -10 75q-3 33 -1 61q1 18 -13 18q-5 1 -13 -2q-6 -3 -8 -2q-2 0 0 1q26 14 39 -3z
M170 137l2 -2q0 -2 -3 -2q-8 -2 -14 -5q-3 -2 -1 1q1 3 -3 3q-3 -1 -1 1l6 2h1q1 1 3 2t10 0zM141 133q0 -3 1 -8q0 -2 1 -6v-6q1 -2 1 -3h1q12 3 14 5l4 2l3 -1h6q2 -1 2 -2q1 -1 -4 -2q-11 0 -23 -4q-1 0 -3 -1h-6q-3 0 2 2q-2 12 -1 24q1 2 2 0zM90 132q1 0 5 -1
q5 -3 10 -5q1 -1 0 -3q0 -3 -2 -3q-6 2 -9 -24q14 11 27 26q3 1 2 -2q-35 -42 -46 -42q-3 0 0 2l1 1q6 4 11 9q-1 8 1 12q-5 -1 -9 -2q-2 -2 -3 0q-2 2 0 2q4 3 12 6q0 2 1 7q0 4 1 7q0 2 -1 2h-3q-3 -2 -9 -4h-1q-2 0 0 2q6 2 10 7q0 1 1 2zM69 98v-16q-3 -33 -1 -66
q-1 -13 4 -17q1 -3 -1 -6q-2 -1 -3 0h-1q-3 4 -7 8l-3 3q-1 1 -1 3q-3 2 -2 5q-1 2 0 2h3q6 -3 6 5q0 32 3 68v7q1 2 1 4t2 0zM134 79q0 6 -3 7q-3 2 -8 -1q-10 -4 -18 -6q-3 0 0 2l2 1q2 0 4 2q2 0 8 2l6 3q4 3 11 -2q4 -6 7 -6v-1q3 0 1 -3l-1 -1q-3 -3 -2 -10
q1 -20 1 -30q-1 -10 -2 -18q-1 -3 -2 -2q-1 -1 -3 1q-6 4 -9 8q-4 2 1 1q10 -5 12 7q0 4 -2 20v8q-1 3 -3 18zM128 66q2 -1 -2 -3q-3 -3 -10 -5q-4 -3 -3 0h-3q-1 0 -4 -1q-4 -1 -4 0q-1 -16 2 -21h4q5 1 9 3q9 4 15 4q1 -1 1 -2q-1 -1 -3 -2q-2 0 -4 -1q-1 -1 -2 -1
q-7 -2 -19 -3q2 -6 1 -6q-2 -2 -2 0q-6 6 -7 16q-2 2 2 4q-1 0 0 10q1 9 1 10t1 0q-1 -2 0 -5q1 -4 1 -5q3 1 8 3q7 3 15 6q2 0 3 -1z" />
  </g>

</svg>
