<?xml version="1.0" standalone="no"?>
<!DOCTYPE svg PUBLIC "-//W3C//DTD SVG 1.1//EN" "http://www.w3.org/Graphics/SVG/1.1/DTD/svg11.dtd" >
<svg xmlns="http://www.w3.org/2000/svg" xmlns:xlink="http://www.w3.org/1999/xlink" version="1.1" viewBox="0 -52 256 256">
  <g transform="matrix(1 0 0 -1 0 204)">
   <path fill="currentColor"
d="M140 196q3 -4 9 -8q2 -4 1 -6q-2 -1 -5 -5v-1q-4 -7 -11 -15q1 -1 2 0t3 1q1 -1 3 1q6 4 14 1q2 -3 6 -8q3 -2 4 -2q2 -6 -2 -7q-5 0 -6 -6q-2 -21 -4 -38q5 -2 2 -6q-2 -2 -2 -3q-1 -72 12 -104q0 -2 -2 -4q-3 -1 -4 1l-4 8q-4 6 -12 24q-2 5 2 1q5 -5 7 -9q1 -2 2 -2
t1 3q-3 14 -4 32q-1 15 -2 44q-6 -8 -16 -23q-4 -5 -7 -10q-7 -12 -17 -16q-7 -4 -9 -9q5 1 9 0q2 -4 1 -6q-5 -3 -10 -2q-9 0 -16 -4q-4 1 -1 5q4 3 10 5q-2 1 4 14v3h-3q-4 -2 -20 -8q4 -11 5 -16q1 -6 5 -8q1 -5 -4 -5q-15 7 -9 12q3 6 2 9q-5 7 -4 18q1 3 2 0q0 -2 1 -4
q0 -3 1 -4q18 8 20 11q3 2 8 1q9 -3 10 -5q13 10 34 46q-7 -5 -15 -10v-4l1 -1q0 -4 -3 -3t-4 5q-1 -1 -6 -3q-3 -2 -5 0q-2 3 0 6q3 3 7 10q1 1 2 3q0 2 -1 7q-2 -1 -3 1q-2 1 0 3h2q0 1 1 1q1 7 1 20q-3 0 -3 1t3 2q0 11 -1 17l-4 -4q-5 -2 -4 3q1 7 8 11q6 2 15 22
q5 9 1 15q-3 4 2 2zM147 163q-8 -1 -15 -8q-4 -8 -5 -25h1q3 1 5 3q2 4 10 5q3 -1 1 -4q-6 -5 -12 -13q-5 -5 -2 2q4 7 1 5q-2 -2 -4 -1q-1 -3 -1 -9v-9q4 0 9 6q1 3 16 6q-1 18 1 30q0 2 1 4q1 7 -6 8zM151 117q-7 -1 -24 -23q0 -2 1 -4q0 -3 1 -4q11 6 15 10q2 5 5 2l2 2
v17zM130 104q-1 0 -2 -1t-1 0v-4q1 3 3 5zM123 87q-1 -1 -2 -3v-1l2 1v3zM192 188q9 -8 12 -9q4 -2 1 -6q-7 -8 -2 -56q24 5 24 9q2 3 9 3q5 -2 10 -3q1 -1 1 -2t-1 -1q-10 -1 -43 -10q1 -70 7 -109q-1 -4 -6 -3q-7 11 -12 16q-2 1 -5 5q-3 3 -8 11q-2 5 2 2q8 -12 19 -16
q3 -2 4 4q-3 47 -6 88q-14 -3 -24 -7q-8 -3 -13 0q-3 1 0 2q6 1 16 4q12 3 21 5q-5 75 -8 72q-3 4 2 1zM76 187q6 -3 14 -5h2q5 -1 14 -8q2 -4 -1 -5q-10 2 -22 1q-6 1 0 2q4 1 4 2q1 1 -1 4q-2 1 -5 3t-5 4q-3 2 0 2zM106 106q2 -1 2 -3q0 -1 -2 -1q-5 0 -8 -3l-12 -6
q-6 -2 -2 2l-11 -3h-2q0 1 3 3q13 5 20 12q3 3 12 -1zM91 81q2 2 12 1q2 -3 0 -5q-13 0 -28 -21q-4 -3 -1 1q8 10 9 12q2 4 -1 2q-7 -3 -10 -3q-5 0 0 2q8 3 19 11zM174 80q2 -1 5 -3q5 -2 9 -3q3 -1 3 -7q-2 -5 -6 -2q-5 3 -13 12q-2 1 -2 2q1 1 4 1zM120 130
q-13 -3 -25 -3q-9 0 -21 -3q-14 -6 -48 -14q-13 -4 -20 1q-2 0 -2 2q1 1 4 2q21 -4 90 19q9 2 22 1q2 -1 2 -3t-2 -2z" />
  </g>

</svg>
